<?xml version="1.0" encoding="UTF-8"?>
<svg id="Layer_1" data-name="Layer 1" xmlns="http://www.w3.org/2000/svg" xmlns:xlink="http://www.w3.org/1999/xlink" viewBox="0 0 848.44 136.72">
  <defs>
    <style>
      .cls-1 {
        fill: none;
        stroke: url(#linear-gradient);
        stroke-linejoin: round;
      }
    </style>
    <linearGradient id="linear-gradient" x1="378.29" y1="220.54" x2="459.65" y2="-83.09" gradientUnits="userSpaceOnUse">
      <stop offset="0" stop-color="#00a995"/>
      <stop offset=".43" stop-color="#006eb9"/>
      <stop offset=".47" stop-color="#1671ab"/>
      <stop offset=".58" stop-color="#597b80"/>
      <stop offset=".69" stop-color="#91845d"/>
      <stop offset=".79" stop-color="#bd8b41"/>
      <stop offset=".87" stop-color="#dc8f2d"/>
      <stop offset=".95" stop-color="#f09221"/>
      <stop offset="1" stop-color="#f7941d"/>
    </linearGradient>
  </defs>
  <path class="cls-1" d="m10.68,68.27c.61,4.44,2.57,36.45,3.27,20.13,0,0,.82-8.18.82-8.18.71,10.91,1.95,23.95,4.91,34.04.81-1.53.2-17.03,2.45-12.46,1.5,2.59-.04,13.06,3.27,13.87-.13-3.89,1.96-13.84,1.64-17.9,1.41,1.54.37,11.53,3.27,10.3,1.15-1.52.41-4.51,1.64-5.88,0,0,.82,11.86.82,11.86-.45-1.89,2.37-9.32,1.63-11.48.5,1.14,1.21,3.5,1.64,4.66,1.26-2.17.26-6.81,1.64-8.82,1.2-.63,1.71-.33,2.45.57.83-2.32,3.46-2.45,4.09-5.08,1.16-1.19,3.22-3.61,4.91-3.43,1.79-1.67,3.31-4.01,5.72-4.84,2.25-3.27,5.82-4.44,8.18-7.6,9.11-5.96,13.68-17.03,15.53-27.52-.5-1.57.57-12.73,1.82-14.52-2.59,3.7.66,21.61,8,26.8,11.05,16.65,75.38,12.29,95.66,12.63,40.69-.8,81.2-3.01,121.83-6.67,25.74-3.23,93.98-6.62,107.11-29.96,3.65-3.7,5.96-9.78,5.72-14.82-.55-11.5,3.38,14.31,12.27,20.25,19.95,15.29,52.85,17.38,77.67,20.91,27.8,3.08,55.51,5.44,83.4,7.17,11.46,1.12,23.98,1.6,34.34,5.84,4.67-2.03,5.24-10.97,11.45-8.98,7.18,3.1,15.2,3.49,22.89,4.19,7.6.84,15.18,2.01,22.89,1.8,2.14,1.52,5.1-.57,7.36,1.06.82,0,1.98-.28,2.45.69.68-1.04,2.65-.72,3.27.3-.11-.92,1.48-1.18,1.63-.17.12-1.75,2.35-.97,2.45.42.57-.75,2.11-1.72,2.45-.08,1.55-6.32.68-.48,1.64,1.55.55-1.35,1.9-4.28,2.45-1.09,1.12-1.45.49-1.95,1.64-.14,1.03.28,2.42-.79,3.27-.08.76.98,2.38-.13,3.27.33.8.6,1.68-.48,2.45.24,1.12.89,1.57-.74,2.45.66.29-1.25,1.78-.02,2.45-.55,2.01.26,3.43.8,5.72.94.74-1.81,1.72.43,2.45-1.44.94,4.37.98,1.78,2.45-.72.36,3.22,1.47,1.41,2.45,2.66,1.2,4.49,1.29-3.26,1.64-3.66,0,0,.82,9.86.82,9.86-.82-1.32,1.1-11.83,1.63-12.64.65,2.88,2.18,6.92,2.46,9.91,0,0,.82-6.89.82-6.89.26.28.33,5.15,1.63,3.47,1.58,5.82.79-.73,1.64-2,.72,5.17,1.35.73,2.45,3.32,1.67-4.85.3.49,2.45,1.07.55,1.03,1.59-.84,1.63-1.44.26.03,1.36-.09,1.64-.25.95.77,1.87,1.78,3.27,1.16,0,0,.82,5.49.82,5.49-.43-.68.93-11.09,1.63-5.01.78-1.93,3,.39,3.27,1.73,0,0,.82-3.81.82-3.81.68,5.26.72,8.73,1.64.95,1.98-1.88.97,8.11,1.64,8.23.29-2.57,1.32-7.72,1.63-10.29.73,13.44,1.37-1.34,1.63-4.34,1.35,18.83,1.23-14.51,1.64-14.8-.94.47,1.16,37.59,1.63,19.09,0,0,.82,2.73.82,2.73,1.09-1.46.02-9.81,1.64-2.92,0,0,.82,26.22.82,26.22-.38.71.59-36.95,1.63-22.39,0,0,.82-2.83.82-2.83,1.31,12.13,1.93,2.59,2.45-2.45,0,0,.82,11.09.82,11.09,0,0,.82-13.61.82-13.61l.82,22.23s.82-20.72.82-20.72l.82,29.03c.91-5.41.87-43.86,2.45-19.42,0,0,.82-9.58.82-9.58,2.62,1.69.3,11.78,1.64,13.83,0,0,.81-12.34.81-12.34,2.4,4.23,1.56,12.62,2.45,17.15,0,0,.82-17.73.82-17.73,3.43,11.64,3.26-2.5,4.91-5.82,3.86-24.35,2.75-23.23,6.54.35,0,0,.82-14.45.82-14.45,3.12,2.53.62,13.88,3.27,15.21,1.39-14.62.48-10.02,1.64.65.82-2.74,1.76-6.57,2.45-9.35,0,0,.82,20.75.82,20.75-1.27-1.06,1.45-27.42,1.63-11.43.74-9.66,1.26-11.89,2.46-.43.77-6.27,1.24-30.15,2.45-10.03.17-.35.44-9.63,1.63-5,0,0,.82,10.54.82,10.54,0,0,.82-16.31.82-16.31,0,0,.82,12.55.82,12.55,1.33-4.77.13-11.15,1.64-1.01-1.28-2.75,1.88-11.15,1.63-13.69.68,4.39.51,11.74,1.64,2.63.49.08,1.35.71,1.64,1.14,1.12,1.31,1.39-2.46,1.64-2.9,0,0,.82,8.64.82,8.64,1.26-.3,1.11-2.41,1.64-3.16,0,0,.82,11.27.82,11.27,1.23-1.01-.23-11.9,1.64-3.9.97-9.6,1.34,3.51,1.63,4.59,3.65-1.27,2.22-8.36,4.09-11.41,0,0,.82,15.14.82,15.14,1.58-1.38.76-5.21,1.64-6.76l-11.82-1.61c-1.13,4.99-.96-4.93-2.45,0,0,0-.82,0-.82,0-.81,12.56-2.01-12.49-3.27,0-1.69-1.39-.9-.49-1.64,0,0,0-.82,0-.82,0-2.21-15.5-3.2-1.8-3.27,0-.71-3.19-1.63,3.14-2.45,0-.54.33.08-7.23-1.63,0-1.34,7.44-.18-7.22-1.64,0,0,0-.81,0-.81,0-3.92-21.32-1.15.21-2.46,0-.67-5.44-1.45,5.31-2.45,0,0,0-.82,0-.82,0-.29-.62-2.13,1.24-1.63,0-2.25,2.96.91-2.49-1.64,0,0,0-.81,0-.81,0h-.82c-1,17.94-3.68,5.2-4.09,0,.15,6.67-1.98-6.87-1.63,0,0,0-.82,0-.82,0h-.82c-1.79-3.78.4,3.46-1.64,0-2.27.65,1.09,9.76-1.63,0-1.64-.21-.88,5.82-2.45,0-2.08-2.98,1.42,1.48-3.28,0-1.58,2.28-1.12.28-1.63,0,0,0-.82,0-.82,0-1.78-2.87-.76,2.44-3.27,0-.33,3.22-2.71,7.24-4.09,0-1.51,1.89-1,.88-2.46,0-1.27,1.1-1.41.36-1.63,0-1.34,6.62-1-6.24-2.45,0-.4-4.26-2.43,4.37-2.45,0-3.42-8.9-1.6,13.18-2.42,0-2.59,17.18-3.73-17.29-5.76,0-.23-4.19-1.01-6.4-1.63,0-3.48,13.55-3.66-18.22-4.91,0-.98,17.11-1.12,6.31-1.64,0-1.84-13.79-.77-1.06-1.64,0-1.27,6.53-1.83,2.53-2.45,0,0,0-.82,0-.82,0-1.61-15.34-1.56-4.17-2.45,0-1.76-33.64-.89-1.93-1.64,0,.24-16.19-3.07,22.28-2.45,0-.54.29-1.86-.85-1.64,0,0,0-.82,0-.82,0-1.57-9.62-1.27,1.07-1.64,0-1.69,9.77-1.19-.93-1.64,0-4.56,6.57-4.86-11.38-4.9,0-1.23-7.41-.18,7.11-1.64,0-.88,3.41.58-1.19-3.27,0-1.29,2.62-.08-2.45-1.64,0,0,0-.82,0-.82,0-1.01,6.45-1.83-6.35-3.27,0-1.66,9.74-1.13-.41-1.64,0,0,0-.82,0-.82,0-.95.5-1.67.47-1.63,0-1.27,9.37-2.46,3.03-3.27,0,0,0-.82,0-.82,0-1.2-3.19-.79,3-2.45,0-1.06,7.65-.63,1.12-2.45,0-.66,2.17-.73,3.02-1.64,0-1,4.8-.46-4.66-1.64,0,0,0-.82,0-.82,0,0,0-.82,0-.82,0-1.2,25.26-1.17,2.37-1.64,0,0,0-.82,0-.82,0-1.91,1.53-1.76,1.06-2.45,0-1.29-1.04-1.42-.36-1.63,0-1.21.64-1.42.48-1.64,0-.26,3.6-2.63,11.15-3.27,0-1.51-2.46.56,1.71-2.46,0-.5,1.38-1.17-1.39-1.63,0-2.29-3.57-2.1-7.63-3.27,0-2.45-4.12-1.41-2.3-2.45,0-1.68-2.53-2.11-1.24-2.45,0-.7-.11.48-1.47-1.63,0,0,0-.82,0-.82,0,0,0-.82,0-.82,0-2.12-1.86-3.15,3.11-3.27,0-.7,2.25-1.42-2.12-2.45,0,0,0-.82,0-.82,0-1.8,2.6-.95-8.1-2.45,0-.63,1.56-1.55-1.38-2.45,0-1.43,1.88.11,6.49-1.64,0-1.08-2.69-.08,1.73-2.45,0,.35,2.52-1.04-1.68-2.45,0-1.3-.75.13-2.52-1.64,0-.92.03-1.57.67-1.63,0-1.49-6.06-1.11-1.71-2.45,0,0,0-.82,0-.82,0-1.59-4.89-.6,3.44-2.45,0-1.95.95-1.04,4.28-3.27,0-.82,1.47-1.15,4.77-2.45,0-1.03-6.78-2.32,14.31-4.91,0-3.08,6.37-1.21-4.51-3.27,0-1.8-4.21-.53,1.12-3.27,0-1.73,8.02-1.76.26-4.09,0-2.78,8.05-2.32-6.53-4.09,0,0,0-.82,0-.82,0-1.28-.85.16-3.71-1.64,0-2.01,2.65-.39-1.35-2.45,0-1.1,2.06-1.65-3.74-2.45,0-.41-.6-1.54.83-1.63,0-.55.65-1.76-1.06-1.64,0-1.56-.29-1.43,1.22-2.45,0-1.21-3.94-2.18-2.51-3.27,0-1.7-1.98-1.7-1.45-2.45,0-1.92-.81-1.87-5.64-3.27,0-1.41,4.31-1.65,1.5-2.45,0,0,0-.82,0-.82,0-.76-.57-.71-.58-1.64,0-.76.7-1.18.74-2.45,0,0,0-.82,0-.82,0-1.38-4.93-2.95-11.59-4.91,0-.82-.97-.49-2.48-2.45,0-1.36-2.07-1.61-1.76-2.45,0-1.55-1.02-2.43-1.82-4.09,0-.77-1.45-2.06.69-3.27,0-1.46,1.72-.72.91-1.64,0-1.59-2.78-.58-1.31-1.64,0-1.85.35-2.17-1.46-2.45,0-.43-1.71-1.34,1.76-1.63,0-.92-.45.52,4.6-1.64,0-.72-1-.05-7.79-3.27,0-.45-.63-1.28.7-1.63,0-1.06-.24-1.33-.58-1.64,0-.86-.6-.33-.13-1.64,0-2.07,2.25-.79-.18-3.27,0-.7,1.6-1.92-1.98-2.45,0-2.64-1.09-2.12,2.2-4.09,0-.9.72-.07-.1-1.64,0-1.18-.78-1.09-.57-1.63,0-2.75-2.92-2.56-2.62-3.27,0-3.47-4.41-2.3-1.31-4.09,0-.17-2.49-2.37-6.33-4.91,0-.31-1.65-2.65-2.94-4.09,0-2.23,8.85-1.42-6.68-4.91,0-1.47.5-1.41,2.04-2.45,0-1.35,1.18-2.25.86-3.27,0-1.58,3.66-1.65,3.36-2.45,0-.55,1.16-1.36-.5-2.45,0-2.13-2.2-1.28-3.55-2.45,0-1.36-6.22-4.81,6.95-6.54,0-1.37,4.83-.67-.85-3.27,0-.68.55-.64.45-1.64,0-2.28,4.73-1.24-.87-4.09,0-3.66,3.46-3.04,6.31-4.91,0-1.03,2.01-1.98-1.34-3.27,0-.94.58-1.58.21-2.45,0-1.16.69-1.25.53-1.64,0-.95,1.45-2,2.28-3.27,0-1.09-2.13-1.87-1.48-2.45,0-2.28-4.31-1.89,3.56-3.27,0-.95-1.55-1.26-.41-2.45,0-2.51.55-2.22-.32-4.09,0-2.17,2.24-1.82,1.51-2.45,0-.5,1.05-.86.31-2.45,0-1.24,1.15-1.88.79-2.45,0-1.49.8-1.97,1.24-2.45,0-2.04,0-3.06,1.54-4.09,0-.62.74-.7.82-1.64,0-1.06-2.98-3.96,2.15-4.91,0-.7-2.04-3.29.79-4.91,0-11.38-13.34-14.33,19.5-16.35,0-2.6,7.77-2.29-8.06-4.09,0-2.35,9.85-4.86-7.72-11.45,0-.72,1.67-2.3-1.12-3.27,0-.21.79-.61-.12-1.64,0-.33,1.71-1.01-.18-2.45,0-.12,1.91-1.61-1.21-2.45,0-2.96-2.67-2.27,1.55-4.09,0-1.81-4.46-1.83,4.54-3.27,0-.3,3.03-1.48,5.54-2.45,0-.42.91.03,2.54-2.45,0-.37,2.45-1.23-2.44-1.64,0-.34-.18-.18-6.63-1.63,0-.2.49-.47.9-1.64,0-.14.49-.43.61-1.64,0-1.08-7.03-.8-4.23-1.64,0-1.48-2.02-1.35-4.96-2.45,0-.88-4.7-1.61-7.26-2.45,0-1.42,2.3-1.19.36-1.64,0,0,0-.82,0-.82,0-.57-.97-1.3,1.08-1.64,0,0,0-.82,0-.82,0-1.58,2.62-.73-.35-2.45,0-.22-.29-.29-3.86-1.63,0-1.77,3.55-.54-3.5-2.45,0,0,0-.82,0-.82,0-1.62-.87-1.25-.32-1.64,0,0,0-.82,0-.82,0h-.82c-3.71-.91-1.04,2.25-3.27,0-1.21,2.38-1.25-2.67-1.64,0-.65-4.21-1.14-15.3-2.45,0-.07,5.57-1.08-5.39-1.64,0,0,0-.82,0-.82,0-2.47,6.88-1.87,1.18-3.27,0-1.35-.13-1.37-.7-1.64,0-1.27-9.61-.9-20.61-5.72,0-1.21,1.06-1.25-1.37-1.64,0,.08-.24-.21-1.5-1.63,0-3.35,2.84-1.73-5.27-3.27,0,0,0-.82,0-.82,0-.36-5.97-1.16,5.78-2.45,0,.22,2.77-.93-2.41-1.64,0-2.86-36.5-6.2,19.36-7.36,0-1.83-2.12-1.1-.04-1.64,0,0,0-.82,0-.82,0h-.82c-2.39,1.28-.3-8.45-2.45,0,0,0-.82,0-.82,0,.08-.48-.56-4.41-1.63,0-.14,3.56-2.89,2.99-3.27,0-1.21,9.63-1.98,2.6-2.45,0-.77,2.03-3.08,3.34-4.91,0-1.79,10.71-.72,5.21-4.09,0-.48,1.34-1.27-1.38-1.64,0-.88-.97-1.36-2.81-2.45,0-1.17,2.88-1.18.63-1.64,0-1.32,3.65-1.13.52-1.64,0-.21-1.52-1.21-1.66-1.63,0-.48-1.77-.73.9-2.45,0-.91,3.02-1.4-2.98-2.45,0-.68-3.13.17-.35-3.27,0-1.51-4.91-.96-.65-1.64,0-.86-5.01-1.83-5.29-2.45,0-.74-3.75-2.96-4.46-5.72,0-1.49-1.32-2.64-3.74-4.09,0-.28-2.02-2.12-1.72-2.45,0,.05-3.23-4.07-3.08-4.91,0-2.32-5.05-.16-.8-4.09,0-.45,1.03-1.45.71-1.63,0-1.7.64-3.26.19-4.91,0-.77-.19-1.93-.65-2.45,0-.69.25-1.43.54-1.63,0-1.03-.17-1.36-.6-1.64,0,.08-2.59-1.87-2.71-2.45,0-1.01-.43-1.87-1.74-2.45,0,.13-1.39-1.26-2.27-1.63,0,.15-1.26-1.53.49-2.45,0-.87,0-1.78.91-2.45,0-.82-3.13-.55-.69-2.45,0-1.57-.93-2.05-.38-4.09,0-1.06-.85-1.21.63-2.45,0-3.93-4.98-4.97,4.13-9.81,0-3.74,5.3-6.41-5.88-9,0-1.03-1.46-1.37-.51-1.63,0-1.94-.78-1.84-.35-3.27,0-1.29.46-2.08-1.2-2.45,0,0,0-.82,0-.82,0-2.78,5.7-2.44-6.98-4.09,0-1.74,5.27-1.83,3.78-2.45,0,0,3.31-1.46,2.8-1.63,0,.46.57-.91,6.05-1.63,0-1.64,1.38.33,5.01-1.64,0-.46-3.12-1.9-1.5-2.45,0-.96-1.11-1.41-.51-1.64,0-2.9-8.16-.56-5.13-3.27,0-.89,2.61-.64,3.27-1.64,0-2.06,2.05-.67-2.38-1.64,0,0,0-.82,0-.82,0,1-12.46-2.65,12.02-3.27,0-.14-3.35-1.51-1.99-1.63,0-1.11-1.8-.37-2.81-1.64,0,0,0-.82,0-.82,0h-.82c-.2-3.55-1.51-1.89-1.63,0-1.76-12.64-2.31-1.26-2.45,0,1.08-2.68-1.53,2.28-1.63,0-2.09,2.01-.46,12.24-2.46,0-2.18,16.8-2.08,2.76-2.45,0,0,0-.82,0-.82,0,0,0-.82,0-.82,0,0,0-.82,0-.82,0-1.4-20.1-2.43-3.05-2.45,0,0,0-.82,0-.82,0-.18.17-.03,1.33-1.63,0-1.17-15.36-.46-17.72-1.64,0-2.12,9.98-.91-1.49-1.64,0,.37-1.21-1.07-5.65-1.63,0,0,0-.82,0-.82,0,.83-.93-1.07.22-1.63,0-.54,2-.48,9.07-1.64,0-1.64-19.23-1-1-1.64,0,0,0-.82,0-.82,0,0,0-.82,0-.82,0-.68-1.53.48,1.03-1.63,0,0,0-.82,0-.82,0,0,0-.82,0-.82,0-2.06-.96-1-.25-1.64,0,.01-5.51-2.49-6.9-4.09,0,0,0-.82,0-.82,0,.77-.86-1.01.22-1.63,0,0,0-.82,0-.82,0h-.82c-1.47-15.59-1.64-4.82-3.27,0,.63-1.2-1.03-14.51-1.63,0,0,0-.82,0-.82,0,0,0-.82,0-.82,0h-.82c1.36-4.54-1.71,3.94-1.63,0-2.48,6.02-.37-6.66-1.64,0,1.46-.74-1.51-22.61-1.63,0-1.08-16.6-2.41,27.33-3.27,0-1.14,11-2.33-11.03-3.27,0,0,0-.82,0-.82,0h-.82c-1.21-4.04-.21-8.08-1.64,0-1.35-3.32-1.49-5.85-2.45,0,0,0-.82,0-.82,0-.96-4.45-.22-15.64-3.27,0,.03-1.97-.16-4.27-2.45,0,.28,4.7-1.51-4.61-1.64,0,0,0-.82,0-.82,0h-.82s-.82,0-.82,0c0,0-.82,0-.82,0-1.07-3.91-.26-8.38-1.64,0,0,0-.82,0-.82,0-2.83,2.21,1.41,27.08-1.64,0,0,0-.81,0-.81,0-1.37,3.03.18,13.37-1.64,0-.25.23-.03,1.23-1.63,0,0,0-.82,0-.82,0-.35-8.57-3.49,8.78-3.27,0-.67,1.67-.32,14.21-2.45,0,0,0-.82,0-.82,0,0,0-.82,0-.82,0-.92,25.97-.63,30.66-1.64,0-1.61,4.71-.29-4.51-2.45,0-2.11-1.63-.55,1.89-1.64,0-1.93-13.8-1.03,1.64-1.63,0-.32,1.02.13-7.88-1.63,0,0,0-.82,0-.82,0-.83-7.71-2.48,7.82-3.27,0,.83,4.01-1.88-3.23-3.27,0-1.23,3.25-.54,2.84-1.64,0,0,0-.82,0-.82,0,.54,1.62-2.01,4.57-2.45,0,0,0-.82,0-.82,0h-.82c-2.22,5.44-3.65-5.51-4.9,0-.74,10.81-2.13-12.31-2.45,0,0,0-.82,0-.82,0-3.29,2.51-.58-1.9-3.27,0,0,0-.82,0-.82,0,0,0-.82,0-.82,0-.4-3.82-2.22,3.87-2.45,0,1.82,3.68-2.03-3.11-1.63,0-1.26-4.34.2-.54-2.46,0,0,0-.82,0-.82,0-.94-6.16-1.04-21.32-2.45,0-1.61-19.6-.88-2-1.64,0-1.32,40.33-1.06,7-1.63,0,0,0-.82,0-.82,0,0,0-.82,0-.82,0-1.57,2.74.11,6.94-1.64,0-1.5-39.4-1.2.69-1.63,0,0,0-.82,0-.82,0-2.76,9.69-2.37,9.71-3.27,0,0,0-.82,0-.82,0,.23,1.03-.43-13.93-1.63,0-2.42.6-.6-1.24-1.64,0,0,0-.82,0-.82,0,0,0-.82,0-.82,0,0,0-.82,0-.82,0-1.53,6.68-.68,2.15-1.64,0-1.26,16.31-.98,4.7-1.63,0,0,0-.82,0-.82,0-.05.16-.35-8.55-1.64,0v-1.87c1.13,4.99.96,15.97,2.45,20.9,0,0,.82-21.39.82-21.39.81,12.56,2.01,28.06,3.27,40.56,1.69-1.39.9,1.7,1.64,2.19,0,0,.82-17.53.82-17.53,2.21-15.5,3.2,14.1,3.27,15.9.71-3.19,1.63-7.43,2.45-10.57.54.33-.08-19.28,1.63-12.06,1.34,7.44.18,25.23,1.64,32.45,0,0,.81-15.4.81-15.4,3.92-21.32,1.15,22.82,2.46,22.61.67-5.44,1.45-13.86,2.45-19.17,0,0,.82,8.4.82,8.4.29-.62,2.13-16.05,1.63-17.29,2.25,2.96-.91,19.88,1.64,22.37,0,0,.81-10.02.81-10.02l.82-3.67c1,17.94,3.68-8.8,4.09-13.99-.15,6.67,1.98,23.34,1.63,30.22,0,0,.82-16.02.82-16.02,0,0,.82,13.7.82,13.7,1.79-3.78-.4-15.99,1.64-19.45,2.27.65-1.09,16.82,1.63,7.06,1.64-.21.88,10.32,2.45,4.5,2.08-2.98-1.42-12.56,3.28-14.04,1.58,2.28,1.12-3.85,1.63-4.13,0,0,.82,2.24.82,2.24,1.78-2.87.76-8.26,3.27-10.69.33,3.22,2.71,10.82,4.09,3.58,1.51,1.89,1,.28,2.46-.6,1.27,1.1,1.41-5.07,1.63-5.43,1.34,6.62,1-2.87,2.45,3.37.4-4.26,2.43-10.67,2.45-15.04,3.42-8.9,1.6-25.64,2.42-38.82,2.59,17.18,3.73,30.04,5.76,47.33.23-4.19,1.01-6.77,1.63-.37,3.48,13.55,3.66,12.65,4.91,30.87.98,17.11,1.12,1.92,1.64-4.39,1.84-13.79.77,6.81,1.64,7.87,1.27,6.53,1.83-18.5,2.45-21.03,0,0,.82,9.86.82,9.86,1.61-15.34,1.56,6.38,2.45,10.56,1.76-33.64.89,21.62,1.64,23.55-.24-16.19,3.07-16.74,2.45-39.03.54.29,1.86,5.61,1.64,6.46,0,0,.82-4.16.82-4.16,1.57-9.62,1.27,21.53,1.64,20.46,1.69,9.77,1.19-23.72,1.64-22.78,4.56,6.57,4.86,25.18,4.9,36.56,1.23-7.41.18-26.18,1.64-33.29.88,3.41-.58,7.4,3.27,8.58,1.29,2.62.08,10.22,1.64,12.68,0,0,.82-21.87.82-21.87,1.01,6.45,1.83,14.96,3.27,21.31,1.66,9.74,1.13-14.36,1.64-13.95,0,0,.82,11.89.82,11.89.95.5,1.67-8.08,1.63-8.56,1.27,9.37,2.46-5.74,3.27-8.77,0,0,.82,12.25.82,12.25,1.2-3.19.79-13.26,2.45-16.26,1.06,7.65.63-.94,2.45-2.06.66,2.17.73,3.6,1.64.58,1,4.8.46,16.08,1.64,20.74,0,0,.82-16.35.82-16.35,0,0,.82,12.49.82,12.49,1.2,25.26,1.17-8.95,1.64-11.32,0,0,.82-4.45.82-4.45,1.91,1.53,1.76-.84,2.45-1.89,1.29-1.04,1.42,5.84,1.63,6.2,1.21.64,1.42-4.15,1.64-4.63.26,3.6,2.63,23.99,3.27,12.84,1.51-2.46-.56-9.67,2.46-11.39.5,1.38,1.17,4.19,1.63,5.58,2.29-3.57,2.1-9.84,3.27-2.21,2.45-4.12,1.41-.9,2.45,1.39,1.68-2.53,2.11,6.4,2.45,7.63.7-.11-.48-16.9,1.63-15.43,0,0,.82,4.14.82,4.14,0,0,.82,1.84.82,1.84,2.12-1.86,3.15-3.28,3.27-6.39.7,2.25,1.42,5.28,2.45,7.4,0,0,.82-1.48.82-1.48,1.8,2.6.95-11.34,2.45-3.25.63,1.56,1.55,3.29,2.45,4.67,1.43,1.88-.11,8.58,1.64,2.09,1.08-2.69.08-9.29,2.45-11.02-.35,2.52,1.04,6.84,2.45,8.52,1.3-.75-.13-4.27,1.64-1.75.92.03,1.57-4.5,1.63-5.17,1.49-6.06,1.11,2.27,2.45,3.98,0,0,.82-4.44.82-4.44,1.59-4.89.6,3.72,2.45.29,1.95.95,1.04,6.05,3.27,1.77.82,1.47,1.15,9.34,2.45,4.56,1.03-6.78,2.32,6.54,4.91-7.77,3.08,6.37,1.21-2.52,3.27,1.99,1.8-4.21.53,5.61,3.27,4.49,1.73,8.02,1.76-3.95,4.09-4.21,2.78,8.05,2.32-3.42,4.09,3.1,0,0,.82,3.09.82,3.09,1.28-.85-.16-5.86,1.64-2.15,2.01,2.65.39-4.89,2.45-3.55,1.1,2.06,1.65-1.48,2.45,2.26.41-.6,1.54-2.46,1.63-3.29.55.65,1.76,5.21,1.64,6.27,1.56-.29,1.43-4.72,2.45-5.94,1.21-3.94,2.18-1.62,3.27.88,1.7-1.98,1.7-.42,2.45,1.02,1.92-.81,1.87-6,3.27-.36,1.41,4.31,1.65-1.37,2.45-2.87,0,0,.82,2,.82,2,.76-.57.71-1.15,1.64-.56.76.7,1.18,2.72,2.45,1.98,0,0,.82,5.17.82,5.17,1.38-4.93,2.95-16.05,4.91-4.46.82-.97.49-5.68,2.45-3.2,1.36-2.07,1.61-1.34,2.45.42,1.55-1.02,2.43-3.03,4.09-1.21.77-1.45,2.06-.99,3.27-1.68,1.46,1.72.72.14,1.64-.77,1.59-2.78.58-.55,1.64.76,1.85.35,2.17,3.25,2.45,4.72.43-1.71,1.34-5.31,1.63-7.07.92-.45-.52,18.96,1.64,14.36.72-1,.05-18.88,3.27-11.09.45-.63,1.28-2,1.63-2.7,1.06-.24,1.33,1.94,1.64,2.52.86-.6.33-2.13,1.64-2,2.07,2.25.79,1.5,3.27,1.68.7,1.6,1.92-.16,2.45,1.82,2.64-1.09,2.12-6.52,4.09-8.72.9.72.07,4.09,1.64,4.18,1.18-.78,1.09.7,1.63,1.28,2.75-2.92,2.56-1.08,3.27,1.54,3.47-4.41,2.3,3.62,4.09,4.93.17-2.49,2.37-13.3,4.91-6.96.31-1.65,2.65-6.11,4.09-3.17,2.23,8.85,1.42-4.76,4.91,1.91,1.47.5,1.41,2.37,2.45.32,1.35,1.18,2.25-2.82,3.27-3.69,1.58,3.66,1.65,3.01,2.45-.34.55,1.16,1.36,1.55,2.45,2.05,2.13-2.2,1.28-3.58,2.45-.03,1.36-6.22,4.81,3.47,6.54-3.48,1.37,4.83.67-.8,3.27.05.68.55.64,1.38,1.64.93,2.28,4.73,1.24-3.11,4.09-2.25,3.66,3.46,3.04,5.56,4.91-.75,1.03,2.01,1.98-.97,3.27.37.94.58,1.58-.55,2.45-.76,1.16.69,1.25-1.51,1.64-2.04.95,1.45,2,3.3,3.27,1.02,1.09-2.13,1.87-.67,2.45.8,2.28-4.31,1.89,1.31,3.27-2.25.95-1.55,1.26-.12,2.45.29,2.51.55,2.22-4.56,4.09-4.24,2.17,2.24,1.82-.45,2.45-1.96.5,1.05.86,3.18,2.45,2.86,1.24,1.15,1.88-1.36,2.45-2.15,1.49.8,1.97-.12,2.45-1.37,2.04,0,3.06-1.46,4.09-2.99.62.74.7,1.48,1.64.66,1.06-2.98,3.96-3.38,4.91-5.52.7-2.04,3.29-2.29,4.91-3.08,11.38-13.34,14.33-36.57,16.35-56.07,2.6,7.77,2.29,17.94,4.09,26,2.35,9.85,4.86,20.69,11.45,28.41.72,1.67,2.3,1.72,3.27,2.83.21.79.61,3.45,1.64,3.58.33,1.71,1.01,1.84,2.45,2.02.12,1.91,1.61,2.23,2.45,3.45,2.96-2.67,2.27,5.22,4.09,3.67,1.81-4.46,1.83,4.66,3.27.12.3,3.03,1.48,6.8,2.45,1.26.42.91-.03,7.51,2.45,4.97.37,2.45,1.23,7.37,1.64,9.8.34-.18.18-13.71,1.63-7.08.2.49.47,3.96,1.64,3.05.14.49.43,5.13,1.64,4.52,1.08-7.03.8-3.53,1.64.7,1.48-2.02,1.35-6.35,2.45-1.39.88-4.7,1.61-8.14,2.45-.88,1.42,2.3,1.19-3.02,1.64-3.39,0,0,.82,9.77.82,9.77.57-.97,1.3-3.2,1.64-4.28,0,0,.82,6.5.82,6.5,1.58,2.62.73-2.16,2.45-1.81.22-.29.29-8.7,1.63-4.84,1.77,3.55.54,17.32,2.45,20.81,0,0,.82-15.68.82-15.68,1.62-.87,1.25,14.38,1.64,14.7,0,0,.82-17.63.82-17.63l.82,19.99c3.71-.91,1.04-16.78,3.27-19.02,1.21,2.38,1.25,12.79,1.64,15.46.65-4.21,1.14-30.26,2.45-14.96.07,5.57,1.08,19.25,1.64,24.64,0,0,.82-17.34.82-17.34,2.47,6.88,1.87-8.45,3.27-9.63,1.35-.13,1.37,16.46,1.64,17.16,1.27-9.61.9-24.9,5.72-4.29,1.21,1.06,1.25,6.19,1.64,7.57-.08-.24.21-21.53,1.63-20.03,3.35,2.84,1.73,18.41,3.27,23.68,0,0,.82-2.92.82-2.92.36-5.97,1.16-15.04,2.45-20.82-.22,2.77.93,15.53,1.64,17.95,2.86-36.5,6.2,4.5,7.36-14.87,1.83-2.12,1.1,9.54,1.64,9.59,0,0,.82-5.6.82-5.6l.82,3.45c2.39,1.28.3-16.65,2.45-8.2,0,0,.82,3.36.82,3.36-.08-.48.56-8.12,1.63-3.71.14,3.56,2.89,2.64,3.27-.35,1.21,9.63,1.98-4.15,2.45-6.75.77,2.03,3.08,7.86,4.91,4.53,1.79,10.71.72,5.51,4.09.3.48,1.34,1.27,4.12,1.64,5.5.88-.97,1.36-4.96,2.45-2.15,1.17,2.88,1.18-1.26,1.64-1.89,1.32,3.65,1.13-2.05,1.64-2.57.21-1.52,1.21-1.79,1.63-.12.48-1.77.73-5.95,2.45-6.85.91,3.02,1.4,7.59,2.45,10.57.68-3.13-.17-6.36,3.27-6.01,1.51-4.91.96,2.34,1.64,2.99.86-5.01,1.83-5.37,2.45-.08.74-3.75,2.96-7.3,5.72-2.85,1.49-1.32,2.64-5.73,4.09-1.99.28-2.02,2.12-1.48,2.45.23-.05-3.23,4.07-3.97,4.91-.89,2.32-5.05.16-3.42,4.09-2.61.45,1.03,1.45.03,1.63-.68,1.7.64,3.26-.25,4.91-.44.77-.19,1.93.13,2.45.78.69.25,1.43-.99,1.63-1.53,1.03-.17,1.36,2.12,1.64,2.72-.08-2.59,1.87-2.97,2.45-.26,1.01-.43,1.87-1.65,2.45.09-.13-1.39,1.26-2.77,1.63-.5-.15-1.26,1.53-2.63,2.45-3.11.87,0,1.78.78,2.45-.13.82-3.13.55-1.56,2.45-.87,1.57-.93,2.05-2.77,4.09-2.39,1.06-.85,1.21-3.13,2.45-3.76,3.93-4.98,4.97-13.24,9.81-17.37,3.74,5.3,6.41,11.41,9,17.28,1.03-1.46,1.37,1.66,1.63,2.17,1.94-.78,1.84,2.56,3.27,2.92,1.29.46,2.08,2.01,2.45,3.21,0,0,.82,4.75.82,4.75,2.78,5.7,2.44-9.4,4.09-2.42,1.74,5.27,1.83,2.86,2.45-.92,0,3.31,1.46,2.61,1.63-.19-.46.57.91,10.73,1.63,4.68,1.64,1.38-.33,6.81,1.64,1.8.46-3.12,1.9-.36,2.45,1.15.96-1.11,1.41,1.59,1.64,2.1,2.9-8.16.56-4.56,3.27.57.89,2.61.64,3.44,1.64.17,2.06,2.05.67,12.59,1.64,14.97,0,0,.82,31.23.82,31.23-1-12.46,2.65-33.95,3.27-45.96.14-3.35,1.51-1.44,1.63.55,1.11-1.8.37-3.23,1.64-.42,0,0,.82-4.88.82-4.88l.82,3.72c.2-3.55,1.51-1.21,1.63.68,1.76-12.64,2.31,10.06,2.45,11.33-1.08-2.68,1.53-15.13,1.63-17.41,2.09,2.01.46,24.91,2.46,12.67,2.18,16.8,2.08-8.26,2.45-11.02,0,0,.82,16,.82,16,0,0,.82-12.55.82-12.55,0,0,.82,9.03.82,9.03,1.4-20.1,2.43,7.04,2.45,10.09,0,0,.82-15.75.82-15.75.18.17.03,11.33,1.63,10.01,1.17-15.36.46-18.15,1.64-.43,2.12,9.98.91-30.13,1.64-28.65-.37-1.21,1.07-7.98,1.63-2.33,0,0,.82,26.28.82,26.28-.83-.93,1.07-14.68,1.63-14.91.54,2,.48,12.67,1.64,3.6,1.64-19.23,1,13.6,1.64,14.6,0,0,.82-18.7.82-18.7,0,0,.82,41.62.82,41.62.68-1.53-.48-36.01,1.63-37.04,0,0,.82,38.24.82,38.24,0,0,.82-38.67.82-38.67,2.06-.96,1,28.44,1.64,28.69-.01-5.51,2.49-34.74,4.09-27.83,0,0,.82,8.15.82,8.15-.77-.86,1.01-9.31,1.63-9.53,0,0,.82,8.07.82,8.07,0,0,.82-6.47.82-6.47,1.47-15.59,1.64,4.88,3.27,9.7-.63-1.2,1.03-22.63,1.63-8.12,0,0,.82,28.14.82,28.14,0,0,.82-35.87.82-35.87,0,0,.82,22.71.82,22.71-1.36-4.54,1.71-27.4,1.63-31.34,2.48,6.02.37,35.42,1.64,42.08-1.46-.74,1.51-44.36,1.63-21.75,1.08-16.6,2.41-8.78,3.27-36.1,1.14,11,2.33,24.18,3.27,35.21,0,0,.82-17.26.82-17.26,0,0,.82,15.56.82,15.56,1.21-4.04.21-9.6,1.64-1.52,1.35-3.32,1.49-6.72,2.45-.87,0,0,.82,32.15.82,32.15.96-4.45.22-36.33,3.27-20.69-.03-1.97.16-30.13,2.45-25.87-.28,4.7,1.51,14.65,1.64,19.26,0,0,.82-14.45.82-14.45l.82,15.79s.82-21.4.82-21.4c0,0,.82,15.46.82,15.46,1.07-3.91.26-10.29,1.64-1.9,0,0,.82-14.44.82-14.44,2.83,2.21-1.41,42.68,1.64,15.6,0,0,.81-11.45.81-11.45,1.37,3.03-.18,19.18,1.64,5.81.25.23.03,8.83,1.63,7.6,0,0,.82-13.34.82-13.34.35-8.57,3.49-20.82,3.27-29.6.67,1.67.32,29.94,2.45,15.73,0,0,.82,9.45.82,9.45,0,0,.82-11.07.82-11.07.92,25.97.63,31.52,1.64.86,1.61,4.71.29,15.47,2.45,19.98,2.11-1.63.55-8.13,1.64-10.01,1.93-13.8,1.03,37.01,1.63,35.36.32,1.02-.13-32.48,1.63-24.6,0,0,.82,5.14.82,5.14.83-7.71,2.48-17.94,3.27-25.76-.83,4.01,1.88,10.25,3.27,13.48,1.23,3.25.54,2.6,1.64-.24,0,0,.82-16.04.82-16.04-.54,1.62,2.01,7.46,2.45,2.89,0,0,.82,9.52.82,9.52,0,0,.82-15.45.82-15.45,2.22,5.44,3.65-24.53,4.9-19.02.74,10.81,2.13,11.43,2.45,23.75,0,0,.82-22.79.82-22.79,3.29,2.51.58,13.14,3.27,15.04,0,0,.82-7.16.82-7.16,0,0,.82,11.15.82,11.15.4-3.82,2.22-9.32,2.45-13.19-1.82,3.68,2.03,22.31,1.63,25.42,1.26-4.34-.2-24.14,2.46-23.6,0,0,.82,10.09.82,10.09.94-6.16,1.04-33.47,2.45-12.14,1.61-19.6.88,7.68,1.64,9.68,1.32,40.33,1.06-10.71,1.63-17.71,0,0,.82,19.12.82,19.12,0,0,.82-10.88.82-10.88,1.57,2.74-.11,8.03,1.64,1.09,1.5-39.4,1.2,44.54,1.63,43.85,0,0,.82-48.83.82-48.83,2.76,9.69,2.37,9.65,3.27-.06,0,0,.82,32.38.82,32.38-.23,1.03.43-39.1,1.63-25.16,2.42.6.6,16.69,1.64,17.94,0,0,.82-21.59.82-21.59,0,0,.82,16.11.82,16.11,0,0,.82-10.44.82-10.44,1.53,6.68.68.3,1.64-1.85,1.26,16.31.98-1.02,1.63-5.72,0,0,.82,29.5.82,29.5.05.16.35-20.21,1.64-11.66l8.37-6.58c-.31,2.25-1.08,6.9-1.64,9.07l-.82-17.45-.82,8.91-.82-1.93-.82,19.89-.82-12.95-.82,6.01-.82-16.55-.82,47.52-.82-47.07-.82,13.75-.82-17.49-.82,4.29c-1.13-1.33-1.37-7.81-1.63-9.49-1.3,6.33-3.13-2.69-4.09,6.59l-.82-4.97c-1.41.78-1.33,11.08-1.64,12.46l-.82-7.09-.82,6.67-.82-9.87-.82,12.95-.82-10.36-.82,18.27c-.72-2.83-1.38-9.95-1.63-12.93-1.26,5.55-1.48,14.1-2.45,19.71l-.82-11.35-.82,6.29-.82-10.08-.82,43.97c-.28-9.59-1.05-30.78-1.64-40.18l-.82,5.74c-1.46-.67-1.3-11.07-1.64-12.38-.2,3-.53,20.77-1.64,23.24l-.82-13.78-.82,12.49-.82-19.17c-.49,2.68-1.29,8.24-1.64,10.97-.42-6.48-.59-18.86-3.27-24.65.07,6.85-1.81,16.92-3.27,23.44-1.14,2.33-1.44,22.82-1.64,25.84l-.82-17.88-.82,1.75-.82-3.97-.82,28.43c-.42-5.61,0-28.75-2.45-33.67l-.82,23.67c-.3-1.03-.15-23.14-1.64-23.28l-.82,13.9-.82-15.6c-.77,6.97-1.4,26.44-1.64,33.72l-.82-34.12-.82,24.07-.82-25.61-.82,34.04-.82-31.2c-.36,1.23-.17,8.48-1.64,9.12l-.82-6.88-.82,5.08-.82-2.25-.82,31.43c-.2-6.02-.63-32.68-1.64-38.11l-.82,15.11-.82-10.97-.82,40.8-.82-59.55-.82,35.75-.82-21.61-.82,26.01-.82-22.35c-.42,2.54-1.24,7.66-1.64,10.21-.44-.15.04-10.03-1.64-8.3l-.82,6.92-.82-7.88-.82,3.79c-3.55-5.23-2.52.48-4.09-3.41l-.82,6.71c-.51-.88.07-7.11-2.45-5.14-.62-.56-1.58-1.16-2.45-1.1-1.05-.74-1.26,1.08-1.63,1.64-1.69-.2-2.14-2.48-2.45-3.8l-.82,2.36c-.69-1.22-.89-1.42-1.64-.09l-.82-3.24-.82,4.67c-.48-.52-.34-3.83-1.64-2.06l-.82-4.09-.82,7c-.04-3-1.83-5.82-3.27-8.27l-.82,10.99-.82-9.88-.82,5.08c-2.09-4.51-2.09.64-3.27-3.9-.51.83-1.27,2.47-1.64,3.38l-.82-2.85c-.52.8-.92,1.32-1.64.35-.61,1.57-1.98.74-3.27.84-1.09.41-1.43-1.34-2.45-.45-.44-.24-1.2-.25-1.64-.01-.64-.64-1.15-.31-1.63.3-1.42-1.7-.79.65-3.27-1.06-.72.67-1.64.13-2.45-.07-.75.43-1.77.46-2.45-.12-.55-.46-1.13-.36-1.63.11-1.56.09-1.89-.1-2.45-1.6l-.82,1.71-.82-1.74c-.37.77-1.14,2.13-1.64,2.83l-.82-4.6-.82,3.59s-.82-1.52-.82-1.52c-.36.24-1.34.76-1.64,1.06-.34-1.37-2.02-2.17-2.45-.42l-.82-.86s-.82,1.02-.82,1.02c-2.74-2.58-2.39.86-4.09-1.11-1.93.62-3.86-1.54-5.72-.11-.77-.05-1.74-.81-2.45-.28-1.32-1.05-3.34-.08-4.91-.49-3.78-.36-7.68-.64-11.45-.96-9.77-1.32-19.88-1.43-29.44-4.36-4.5-1.73-5.72,4.3-6.71,7.43-.71,1.47-2.54,2.12-3.92,2.82-.34-.34-1.23-.57-1.64-.3-1.14-.13-1.32-1.89-2.45-2.04-2.99-1.55-6.43-2.57-9.81-3.05-2.6-.81-5.55-.3-8.18-1.22-3.8-.24-7.64-.75-11.45-.86-7.28-.51-14.7-1.32-22.08-1.6-23.65-2.22-47.45-3.68-71.13-6.82-15.98-2.04-32.02-4.29-47.42-8.91-8.54-2.31-16.62-5.83-23.49-11.57-2.62-2.99-5.11-6.19-6.72-9.88-1.19-1.57,3.37-14.01,1.68-15.02-.28,1.45-4.57,16.51-5.81,17.54l-4.97-10.65c-2.48,2.31,1.58,9.56-.6,12.32-1.28.93-1.52,2.75-2.6,3.84-1.87,1.12-3.16,3.08-4.91,4.39-13.42,9.36-29.99,12.47-45.79,15.47-27.56,4.95-55.48,7.08-83.4,9.42-13.38.7-26.71,1.77-40.06,2.41-13.58.74-27.32.85-40.88,1.73-13.14-.1-26.24.49-39.25.39-4.88.14-9.79-.31-14.72-.43-1.64.55-3.26.14-4.91-.18-3.26.22-6.57-.2-9.81-.37-1.64.24-3.39.09-4.91-.62-1.84.22-3.87-.18-5.72-.37-7.66-.57-15.16-2.26-22.08-5.56-11.41-5.27-6.39-22.32-3.65-33.65l-10.59,17.33-1.29-3.27c-1.95,3.41-1.63,8.52-3.31,11.96-1.99,5.72-5.83,10.59-9.78,15.06-.95.4-1.52,1.72-2.45,2.15-1.13.21-1.5,1.64-2.45,2.17-.65.55-1.54,1.37-2.45,1.34-.29.54-.95,1.57-1.64,1.66-1.13.51-1.4,2.07-2.45,2.69-2.45.82-3.91,3.18-5.72,4.85-1.06-.49-1.89.71-2.45,1.46-.77,0-1.3.85-1.74,1.36-1.38.69-1.44,3.86-3.16,3.43-.69.52-1.24,1.51-1.64,2.28-3.55-3.71-3.52,6.38-4.09,8.29-.44-1.15-1.26-3.51-1.64-4.69-.23,2.31-.73,9.39-1.64,11.47l-.82-10.86c-1.38,1.39-.63,7.96-3.27,4.62l-.82,10.91-.82-7.92c-1.23.54-1.45,24.9-1.64,26.55-.19-2.35-.49-19.28-1.64-21.06l-.82,3.53c-.23-2.74-.79-10.64-1.64-13.17-1.02,1.4-1.38,6.68-1.63,8.37-.98-4.98-2.76-11-3.27-16.28l-.82,10.39-.82-21.47c-1.37.84-1.31,7.71-1.64,9.07l-.82-13.89-.82,1.4-.82-16L.5,31.11c1.13,4.99.96-4.93,2.45,0,0,0,.82,0,.82,0,.81,12.56,2.01-12.49,3.27,0,3.02-3.67,3.5-42.26,5.72,0,2.42-2.89,2.35-4.28,4.09,0,0,9.93,1.78,34.59,2.45,0,3.93-21.32,1.15.21,2.46,0,1.81-6.16,1.63-18.43,3.27,0,.29-.62,2.13,1.24,1.63,0,2.51,5.79-.44,23.62,2.46,0,0,0,.81,0,.81,0,1,17.94,3.68,5.2,4.09,0-.15,6.67,1.98-6.87,1.63,0,0,0,.82,0,.82,0,0,0,.82,0,.82,0,1.79-3.78-.4,3.46,1.64,0,2.27.65-1.09,9.76,1.63,0,1.64-.21.88,5.82,2.45,0,2.08-2.98-1.42,1.48,3.28,0,1.58,2.28,1.12.28,1.63,0,1.85,6.01,1.81,1.26,4.09,0,6.76,21.68,18.75,25.11,15.5,0,2.36,16.21,4.93-1.59,7.39,0,4.87,5.77,5.05,31.45,6.54,0,1.84-13.79.77-1.06,1.64,0,1.27,6.53,1.83,2.53,2.45,0,0,0,.82,0,.82,0,1.61-15.34,1.56-4.17,2.45,0,1.76-33.64.89-1.93,1.64,0-.24-16.19,3.07,22.28,2.45,0,2.78,2.24.59,8.25,2.46,0,1.56-9.62,1.27,1.07,1.63,0,1.69,9.77,1.19-.93,1.64,0,4.56,6.57,4.86-11.38,4.9,0,1.29-19.57-.42-35.66,6.55,0,0,0,.81,0,.81,0,1.01,6.45,1.83-6.35,3.27,0,1.66,9.74,1.13-.41,1.64,0,.05,6.31,1.4,14.73,2.45,0,1.27,9.37,2.46,3.03,3.27,0,0,0,.82,0,.82,0,1.2-3.19.79,3,2.45,0,1.06,7.65.63,1.12,2.45,0,2.45.66,2.31-6.37,3.27,0,0,0,.82,0,.82,0,0,0,.82,0,.82,0,.99,26.74,1.21,1.52,2.45,0,2.69,2.89,2.53-13.08,4.09,0,1.21.64,1.42.48,1.64,0,.26,3.6,2.63,11.15,3.27,0,1.7-4.3.47-12.22,4.09,0,2.29-3.57,2.1-7.63,3.27,0,1.8-6.08,4.6-3.95,4.91,0,.7-.11-.48-1.47,1.63,0,.7,6.98,3.93,6.85,4.91,0,.21,1.53,2.22,3.75,3.27,0,1.81,2.6.95-8.1,2.45,0,.63,1.56,1.55-1.38,2.45,0,2.3,12.5,1,2.24,4.09,0-.35,2.52,1.04-1.68,2.45,0,3.43-2.24,3.36-12.21,5.72,0,0,0,.82,0,.82,0,1.59-4.89.6,3.44,2.45,0,1.95.95,1.04,4.28,3.27,0,.82,1.47,1.15,4.77,2.45,0,1.03-6.78,2.32,14.31,4.91,0,3.08,6.37,1.21-4.51,3.27,0,1.8-4.21.53,1.12,3.27,0,1.73,8.02,1.76.26,4.09,0,3.29,9.01,1.95-12.19,4.91,0,1.28-.85-.16-3.71,1.64,0,2.01,2.65.39-1.35,2.45,0,4.63,4.34,3.93-11.17,5.72,0,3.89-5.74,1.12-7.64,8.18,0,1.92-.81,1.87-5.64,3.27,0,1.41,4.31,1.65,1.5,2.45,0,1.53,2.77,6.47-5.75,5.72,0,1.38-4.93,2.95-11.59,4.91,0,.92-7.23,10.48,4.33,13.9,0,2.61-3.77,4.01,13.64,5.72,0,.92-.45-.52,4.6,1.64,0,.72-1,.05-7.79,3.27,0,1.67-2.49,2.23-3.53,3.27,0,.6-3.36,5.52-1.36,7.36,0,4.3-1.63,1.83-9.72,5.72,0,3,1.7,4.1-5.19,4.9,0,3.47-4.41,2.3-1.31,4.09,0,.17-2.49,2.37-6.33,4.91,0,.31-1.65,2.65-2.94,4.09,0,2.23,8.85,1.42-6.68,4.91,0,2.68,2.71,3.96,2.66,5.72,0,1.58,3.66,1.65,3.36,2.45,0,2.87,5.31,3.92-5.54,4.91,0,1.36-6.22,4.81,6.95,6.54,0,1.31,4.63.78-3.07,4.91,0,2.28,4.73,1.24-.87,4.09,0,6.07,7.06.7.33,10.63,0,1.16.69,1.25.53,1.64,0,2.14,5.42,4.2-4.92,5.72,0,2.28-4.31,1.89,3.56,3.27,0,6.81.34,2.34,3.08,6.54,0,22.93,2.59,41.89,32.18,41.69,0,8.38,71.64,34.98-19.29,44.15,0,1.09-7.03.81-4.23,1.64,0,1.48-2.02,1.35-4.96,2.45,0,2.08-13.75,2.11,11.83,4.09,0,.69,1.72-.16,11.18,2.45,0,.97,2.53-.41,6.41,3.27,0,2.46-16.25,2.51-3.16,4.09,0,.45-14.38,1.66-22.23,2.45,0,0,0,.82,0,.82,0,.59,20.46,1.54,26.38,4.09,0,1.21,2.38,1.25-2.67,1.64,0,.65-4.21,1.14-15.3,2.45,0,.07,5.57,1.08-5.39,1.64,0,.36-16.38,5.69-30.73,5.72,0,.73-21.88,4.45-17,7.36,0,.2-31.13,4.14-20.72,4.9,0,3.19-17.1,1.86-26.37,4.91,0,2.86-36.49,6.2,19.36,7.36,0,1.83-2.12,1.1-.04,1.64,0,0,0,.82,0,.82,0,2.87,13.42,1.18-9.91,3.27,0,0,0,.82,0,.82,0-.08-.48.56-4.41,1.63,0,.14,3.56,2.89,2.99,3.27,0,1.21,9.63,1.98,2.6,2.45,0,.77,2.03,3.08,3.34,4.91,0,1.79,10.71.72,5.21,4.09,0,.48,1.34,1.27-1.38,1.64,0,.88-.97,1.36-2.81,2.45,0,3.99,2.48,6.58-21.9,9.81,0,.68-3.13-.17-.35,3.27,0,1.51-4.91.96-.65,1.64,0,.86-5.01,1.83-5.29,2.45,0,.74-3.75,2.96-4.46,5.72,0,1.49-1.32,2.64-3.74,4.09,0,.28-2.02,2.12-1.72,2.45,0-.05-3.23,4.07-3.08,4.91,0,2.32-5.05.16-.8,4.09,0,40.46,12.56,32.54-62.28,59.68,0,2.79,5.71,2.44-6.98,4.09,0,1.74,5.27,1.83,3.78,2.45,0,0,3.31,1.46,2.8,1.63,0-.46.57.91,6.05,1.63,0,2.19,8.88.68-12.05,5.73,0,2.9-8.16.56-5.13,3.27,0,5.54,1.69,2.73-10.45,4.09,0,.32-15.88,1.48-16.94,9.81,0,1.76-12.64,2.31-1.26,2.45,0-1.08-2.68,1.53,2.28,1.63,0,2.09,2.01.46,12.24,2.46,0,2.18,16.8,2.08,2.76,2.45,0,0,0,.82,0,.82,0,0,0,.82,0,.82,0,0,0,.82,0,.82,0,1.4-20.1,2.43-3.05,2.45,0,0,0,.82,0,.82,0,.18.17.03,1.33,1.63,0,1.17-15.36.46-17.72,1.64,0,2.12,9.98.91-1.49,1.64,0,2.27-15.71,2.18-.86,2.45,0-.83-.93,1.07.22,1.63,0,.54,2,.48,9.07,1.64,0,1.64-19.23,1-1,1.64,0,0,0,.82,0,.82,0,0,0,.82,0,.82,0,.68-1.53-.48,1.03,1.63,0,0,0,.82,0,.82,0,0,0,.82,0,.82,0,2.06-.96,1-.25,1.64,0-.34-10.15,3.92-25.35,4.9,0-.76-.86,1.01.22,1.63,0,1.35,5.07.11,10.68,1.64,0,1.47-15.59,1.64-4.82,3.27,0,1.04-32.87,2.52-6.26,2.45,0,0,0,.82,0,.82,0,0,0,.82,0,.82,0-1.36-4.54,1.71,3.94,1.63,0,2.48,6.02.37-6.66,1.64,0-1.88-38.21,4.13,43.29,4.9,0,1.14,11,2.33-11.03,3.27,0,0,0,.82,0,.82,0,0,0,.82,0,.82,0,1.21-4.04.21-8.08,1.64,0,4.76-14.91,2.17-.74,3.27,0,1.96-22.51,1.72,16.29,5.72,0,1.2,12.05,1.49,22.93,2.46,0,0,0,.82,0,.82,0,0,0,.82,0,.82,0,0,0,.82,0,.82,0,1.83-8.01,1.78,14.23,2.45,0,2.83,2.21-1.41,27.08,1.64,0,0,0,.81,0,.81,0,2.03,32.28,5.74,18.59,7.36,0,.84,19.05,3.83,18.57,4.09,0,.93,25.97.63,30.66,1.64,0,1.61,4.71.29-4.51,2.45,0,3.79-34.15,2.62-5.87,3.27,0-.59-27.65,3.69,25.55,5.72,0,.63,2.59,2.79,6.99,4.91,0,0,0,.81,0,.81,0-.54,1.62,2.01,4.57,2.45,0,1.25,25.64,2.75,2.42,6.54,0,.74,10.81,2.13-12.31,2.45,0,0,0,.82,0,.82,0,3.29,2.51.58-1.9,3.27,0,0,0,.82,0,.82,0,.96,16.49,1.12,10.44,3.27,0-1.82,3.68,2.03-3.11,1.63,0,1.23-8.15,1.09-25.05,3.28,0,.93-6.16,1.04-21.32,2.45,0,1.61-19.6.88-2,1.64,0,1.32,40.33,1.06,7,1.63,0,1.09,5.44.05,23.54,1.63,0,1.57,2.74-.11,6.94,1.64,0,1.5-39.4,1.2.69,1.63,0,0,0,.82,0,.82,0,2.76,9.69,2.37,9.71,3.27,0,0,0,.82,0,.82,0-.23,1.03.43-13.93,1.63,0,2.42.6.6-1.24,1.64,0,0,0,.82,0,.82,0,0,0,.82,0,.82,0,0,0,.82,0,.82,0,1.53,6.68.68,2.15,1.64,0,1.26,16.31.98,4.7,1.63,0,0,0,.82,0,.82,0,.05.16.35-8.55,1.64,0"/>
</svg>