<?xml version="1.0" encoding="UTF-8"?>
<svg id="Layer_2" data-name="Layer 2" xmlns="http://www.w3.org/2000/svg" xmlns:xlink="http://www.w3.org/1999/xlink" viewBox="0 0 406.79 358.35">
  <defs>
    <style>
      .cls-1, .cls-2, .cls-3, .cls-4 {
        fill: #92278f;
      }

      .cls-2, .cls-3, .cls-4, .cls-5, .cls-6, .cls-7 {
        font-size: 18px;
      }

      .cls-2, .cls-8, .cls-6, .cls-7 {
        font-family: TimesNewRomanPS-ItalicMT, 'Times New Roman';
        font-style: italic;
      }

      .cls-9, .cls-10, .cls-11, .cls-12, .cls-13, .cls-14, .cls-15, .cls-16, .cls-17, .cls-18, .cls-19, .cls-20, .cls-21, .cls-22, .cls-23, .cls-24, .cls-25, .cls-26, .cls-27, .cls-28, .cls-29, .cls-30, .cls-31, .cls-32, .cls-33, .cls-34, .cls-35, .cls-36, .cls-37, .cls-38, .cls-39, .cls-40, .cls-41, .cls-42, .cls-43 {
        stroke-linejoin: round;
      }

      .cls-9, .cls-10, .cls-11, .cls-12, .cls-13, .cls-14, .cls-15, .cls-16, .cls-17, .cls-18, .cls-19, .cls-22, .cls-23, .cls-24, .cls-26, .cls-27, .cls-28, .cls-29, .cls-30, .cls-31, .cls-32, .cls-33, .cls-34, .cls-35, .cls-36, .cls-38, .cls-39, .cls-40, .cls-41, .cls-42 {
        stroke-linecap: round;
      }

      .cls-9, .cls-10, .cls-11, .cls-13, .cls-14, .cls-15, .cls-16, .cls-17, .cls-44, .cls-20, .cls-21, .cls-22, .cls-23, .cls-24, .cls-27, .cls-28, .cls-29, .cls-30, .cls-34, .cls-36, .cls-37, .cls-38, .cls-39, .cls-41, .cls-42, .cls-43 {
        fill: none;
      }

      .cls-9, .cls-34 {
        stroke: #ed1c24;
      }

      .cls-10 {
        stroke-dasharray: 5.09 5.09 0 0 0 0;
      }

      .cls-10, .cls-22, .cls-23, .cls-26, .cls-30, .cls-35, .cls-41, .cls-42 {
        stroke: #6d6e71;
      }

      .cls-10, .cls-23, .cls-26, .cls-35, .cls-37, .cls-42 {
        stroke-width: 2px;
      }

      .cls-3, .cls-5, .cls-45, .cls-46 {
        font-family: TimesNewRomanPSMT, 'Times New Roman';
      }

      .cls-11, .cls-44 {
        stroke: #92278f;
      }

      .cls-12 {
        fill: url(#linear-gradient-3);
      }

      .cls-12, .cls-13, .cls-15, .cls-18, .cls-19, .cls-27, .cls-31, .cls-32, .cls-33 {
        stroke: #231f20;
      }

      .cls-13, .cls-28, .cls-40 {
        stroke-width: .75px;
      }

      .cls-47, .cls-6 {
        fill: #ed1c24;
      }

      .cls-14 {
        stroke-width: 1.3px;
      }

      .cls-14, .cls-20, .cls-21, .cls-25, .cls-37, .cls-38, .cls-39, .cls-43 {
        stroke: #fff;
      }

      .cls-16, .cls-20, .cls-21, .cls-22, .cls-29, .cls-35, .cls-37 {
        stroke-dasharray: 5 5 0 0 0 0;
      }

      .cls-16, .cls-29, .cls-36 {
        stroke: #2e3192;
      }

      .cls-17, .cls-28, .cls-40 {
        stroke: #f26522;
      }

      .cls-44 {
        stroke-miterlimit: 10;
      }

      .cls-18 {
        fill: url(#linear-gradient-6);
      }

      .cls-19, .cls-26, .cls-35 {
        fill: #fff;
      }

      .cls-48 {
        font-family: TimesNewRomanPS-BoldMT, 'Times New Roman';
        font-size: 15px;
        font-weight: 700;
      }

      .cls-48, .cls-40, .cls-49 {
        fill: #f26522;
      }

      .cls-21 {
        stroke-width: 1.35px;
      }

      .cls-5, .cls-50, .cls-45, .cls-7 {
        fill: #2e3192;
      }

      .cls-24 {
        stroke: #000;
      }

      .cls-25 {
        fill: url(#linear-gradient);
      }

      .cls-25, .cls-27, .cls-38, .cls-43 {
        stroke-width: 1.2px;
      }

      .cls-25, .cls-43 {
        stroke-linecap: square;
      }

      .cls-29, .cls-34 {
        stroke-width: .5px;
      }

      .cls-30 {
        stroke-dasharray: 2 2 0 0 0 0;
      }

      .cls-31 {
        fill: url(#linear-gradient-4);
      }

      .cls-32 {
        fill: url(#linear-gradient-5);
      }

      .cls-33 {
        fill: url(#linear-gradient-2);
      }

      .cls-45 {
        font-size: 14px;
      }

      .cls-42 {
        stroke-dasharray: 5.01 5.01 0 0 0 0;
      }
    </style>
    <linearGradient id="linear-gradient" x1="33.37" y1="315.84" x2="39.05" y2="315.84" gradientUnits="userSpaceOnUse">
      <stop offset="0" stop-color="#fff"/>
      <stop offset="1" stop-color="#000"/>
    </linearGradient>
    <linearGradient id="linear-gradient-2" x1="34.26" y1="313.48" x2="35.73" y2="313.48" xlink:href="#linear-gradient"/>
    <linearGradient id="linear-gradient-3" x1="37.04" y1="318.85" x2="38.49" y2="318.85" xlink:href="#linear-gradient"/>
    <linearGradient id="linear-gradient-4" x1="1155.21" y1="1584.07" x2="1156.66" y2="1584.07" gradientTransform="translate(895.21 125.22) rotate(-180) scale(.74 -.12)" xlink:href="#linear-gradient"/>
    <linearGradient id="linear-gradient-5" x1="-1171.12" y1="620.31" x2="-1169.67" y2="620.31" gradientTransform="translate(368.98 88.47) scale(.28 .38)" xlink:href="#linear-gradient"/>
    <linearGradient id="linear-gradient-6" x1="42.04" y1="321.46" x2="45.41" y2="321.46" xlink:href="#linear-gradient"/>
  </defs>
  <g id="Layer_1-2" data-name="Layer 1">
    <path class="cls-29" d="M99.34,129.76l92.66-17.48"/>
    <ellipse class="cls-26" cx="68.54" cy="69.91" rx="67.54" ry="11.33"/>
    <path class="cls-35" d="M136.08,159.3c0,3.54-9.65,6.69-24.76,8.77"/>
    <path class="cls-23" d="M109.69,168.03c-11.39,1.47-25.66,2.35-41.15,2.35-37.3,0-67.54-5.07-67.54-11.33"/>
    <g>
      <line class="cls-23" x1="136.08" y1="108.21" x2="136.08" y2="69.91"/>
      <g>
        <line class="cls-23" x1="136.08" y1="159.04" x2="136.08" y2="156.54"/>
        <line class="cls-10" x1="136.08" y1="151.45" x2="136.08" y2="110.71"/>
        <line class="cls-23" x1="136.08" y1="110.71" x2="136.08" y2="108.21"/>
      </g>
      <g>
        <path class="cls-23" d="M1,159.04c0-.72.41-1.43,1.18-2.12"/>
        <path class="cls-42" d="M6.55,154.53c10.39-4.02,34.23-6.83,61.99-6.83,32.97,0,60.43,3.96,66.35,9.21"/>
        <path class="cls-23" d="M134.9,156.92c.77.69,1.18,1.4,1.18,2.12"/>
      </g>
    </g>
    <line class="cls-23" x1="1" y1="69.91" x2="1" y2="159.04"/>
    <text class="cls-6" transform="translate(158.02 86.5)"><tspan x="0" y="0">y</tspan></text>
    <line class="cls-16" x1="68.28" y1="69.84" x2="68.28" y2="117.16"/>
    <g>
      <polyline class="cls-36" points="68.28 8.15 68.28 66.66 68.28 69.84"/>
      <path class="cls-50" d="M68.28,9.95l3.6,2.19.08-.12-2.33-5.88c-.45-2.05-.9-4.09-1.35-6.14-.45,2.05-.9,4.09-1.35,6.14l-2.33,5.88.06.12,3.62-2.19Z"/>
    </g>
    <text class="cls-7" transform="translate(75.86 15.3)"><tspan x="0" y="0">Y</tspan></text>
    <text class="cls-7" transform="translate(9.01 118.72)"><tspan x="0" y="0">Z</tspan></text>
    <line class="cls-16" x1="343.5" y1="214.33" x2="68.28" y2="117.16"/>
    <g>
      <line class="cls-36" x1="390.01" y1="230.75" x2="343.5" y2="214.33"/>
      <path class="cls-50" d="M388.32,230.15l-3.27,2.67.09.12,6.32-.24c2.08.26,4.16.51,6.24.77-1.78-1.11-3.56-2.21-5.34-3.32l-4.76-4.16-.14.02.86,4.15Z"/>
    </g>
    <g>
      <path class="cls-44" d="M79.22,39.51c2.81.92,4.55,2.21,4.55,3.65,0,2.78-6.57,5.04-14.67,5.04-5.14,0-9.66-.91-12.28-2.28"/>
      <path class="cls-1" d="M80.58,39.98l2.33-2.44-.08-.08-4.99.82c-1.68,0-3.35,0-5.03,0,1.52.7,3.05,1.4,4.57,2.11l4.19,2.83.11-.03-1.09-3.21Z"/>
    </g>
    <text class="cls-3" transform="translate(49.01 39.94)"><tspan x="0" y="0">Ω</tspan></text>
    <g>
      <polyline class="cls-36" points="102.52 31.13 102.52 97.01 102.52 128.53"/>
      <path class="cls-50" d="M102.52,32.92l3.6,2.19.08-.12-2.33-5.88c-.45-2.05-.9-4.09-1.35-6.14-.45,2.05-.9,4.09-1.35,6.14l-2.33,5.88.06.12,3.62-2.19Z"/>
    </g>
    <text class="cls-7" transform="translate(111.06 26.29)"><tspan x="0" y="0">y</tspan></text>
    <text class="cls-5" transform="translate(119.05 32.29) scale(.58)"><tspan x="0" y="0">0</tspan></text>
    <g>
      <line class="cls-36" x1="56.75" y1="137.37" x2="102.37" y2="129.2"/>
      <path class="cls-50" d="M58.52,137.05l1.52-3.93-.14-.06-5.37,3.33c-1.94.8-3.87,1.61-5.81,2.41,2.09.08,4.19.17,6.28.25l6.19,1.26.11-.08-2.8-3.18Z"/>
    </g>
    <line class="cls-24" x1="131.36" y1="110.63" x2="131.88" y2="112.88"/>
    <line class="cls-24" x1="140.27" y1="114.48" x2="131.88" y2="112.88"/>
    <line class="cls-24" x1="131.88" y1="112.88" x2="140.27" y2="114.48"/>
    <line class="cls-24" x1="131.47" y1="111.09" x2="131.36" y2="110.63"/>
    <line class="cls-24" x1="131.88" y1="112.88" x2="131.47" y2="111.09"/>
    <line class="cls-24" x1="127.84" y1="117.46" x2="131.88" y2="112.88"/>
    <line class="cls-24" x1="139.78" y1="112.4" x2="131.36" y2="110.63"/>
    <line class="cls-24" x1="131.36" y1="110.63" x2="139.78" y2="112.4"/>
    <line class="cls-24" x1="131.36" y1="110.63" x2="127.42" y2="111.09"/>
    <line class="cls-24" x1="127.42" y1="111.09" x2="131.36" y2="110.63"/>
    <line class="cls-24" x1="127.84" y1="117.46" x2="125.44" y2="119.98"/>
    <line class="cls-24" x1="125.44" y1="119.98" x2="123.43" y2="122.09"/>
    <line class="cls-24" x1="123.43" y1="122.09" x2="125.44" y2="119.98"/>
    <line class="cls-24" x1="127.42" y1="111.09" x2="126.38" y2="111.21"/>
    <line class="cls-24" x1="126.38" y1="111.21" x2="127.42" y2="111.09"/>
    <line class="cls-24" x1="123.43" y1="122.09" x2="118.95" y2="126.44"/>
    <line class="cls-24" x1="123.51" y1="111.7" x2="126.38" y2="111.21"/>
    <line class="cls-24" x1="126.38" y1="111.21" x2="123.51" y2="111.7"/>
    <line class="cls-24" x1="118.95" y1="126.44" x2="118.87" y2="126.51"/>
    <line class="cls-24" x1="118.87" y1="126.51" x2="118.95" y2="126.44"/>
    <line class="cls-24" x1="118.87" y1="126.51" x2="114.35" y2="130.54"/>
    <line class="cls-24" x1="123.51" y1="111.7" x2="121.11" y2="112.11"/>
    <line class="cls-24" x1="121.11" y1="112.11" x2="123.51" y2="111.7"/>
    <line class="cls-24" x1="148.65" y1="116.08" x2="140.27" y2="114.48"/>
    <line class="cls-24" x1="140.27" y1="114.48" x2="148.65" y2="116.08"/>
    <line class="cls-24" x1="119.64" y1="112.45" x2="121.11" y2="112.11"/>
    <line class="cls-24" x1="121.11" y1="112.11" x2="119.64" y2="112.45"/>
    <line class="cls-24" x1="139.78" y1="112.4" x2="148.2" y2="114.17"/>
    <line class="cls-24" x1="148.2" y1="114.17" x2="139.78" y2="112.4"/>
    <line class="cls-24" x1="112.13" y1="132.35" x2="114.35" y2="130.54"/>
    <line class="cls-24" x1="114.35" y1="130.54" x2="112.13" y2="132.35"/>
    <line class="cls-24" x1="115.89" y1="113.3" x2="119.64" y2="112.45"/>
    <line class="cls-24" x1="119.64" y1="112.45" x2="115.89" y2="113.3"/>
    <line class="cls-24" x1="109.83" y1="134.23" x2="112.13" y2="132.35"/>
    <line class="cls-24" x1="112.13" y1="132.35" x2="109.83" y2="134.23"/>
    <line class="cls-24" x1="109.83" y1="134.23" x2="105.27" y2="137.62"/>
    <line class="cls-24" x1="115.89" y1="113.3" x2="115.8" y2="113.33"/>
    <line class="cls-24" x1="115.8" y1="113.33" x2="115.89" y2="113.3"/>
    <line class="cls-24" x1="115.8" y1="113.33" x2="110.69" y2="114.8"/>
    <line class="cls-24" x1="110.69" y1="114.8" x2="115.8" y2="113.33"/>
    <line class="cls-24" x1="105.24" y1="137.65" x2="105.27" y2="137.62"/>
    <line class="cls-24" x1="105.27" y1="137.62" x2="105.24" y2="137.65"/>
    <line class="cls-24" x1="105.24" y1="137.65" x2="100.44" y2="140.88"/>
    <line class="cls-24" x1="148.65" y1="116.08" x2="157.03" y2="117.68"/>
    <line class="cls-24" x1="157.03" y1="117.68" x2="148.65" y2="116.08"/>
    <line class="cls-24" x1="108.25" y1="115.65" x2="110.69" y2="114.8"/>
    <line class="cls-24" x1="110.69" y1="114.8" x2="108.25" y2="115.65"/>
    <line class="cls-24" x1="156.61" y1="115.94" x2="148.2" y2="114.17"/>
    <line class="cls-24" x1="148.2" y1="114.17" x2="156.61" y2="115.94"/>
    <line class="cls-24" x1="100.44" y1="140.88" x2="98.25" y2="142.2"/>
    <line class="cls-24" x1="105.71" y1="116.54" x2="108.25" y2="115.65"/>
    <line class="cls-24" x1="108.25" y1="115.65" x2="105.71" y2="116.54"/>
    <line class="cls-24" x1="98.25" y1="142.2" x2="95.76" y2="143.7"/>
    <line class="cls-24" x1="95.76" y1="143.7" x2="98.25" y2="142.2"/>
    <line class="cls-24" x1="105.71" y1="116.54" x2="100.83" y2="118.54"/>
    <line class="cls-24" x1="100.83" y1="118.54" x2="105.71" y2="116.54"/>
    <line class="cls-24" x1="91.09" y1="146.21" x2="95.76" y2="143.7"/>
    <line class="cls-24" x1="100.79" y1="118.56" x2="100.83" y2="118.54"/>
    <line class="cls-24" x1="100.83" y1="118.54" x2="100.83" y2="118.54"/>
    <line class="cls-24" x1="100.83" y1="118.54" x2="100.83" y2="118.54"/>
    <line class="cls-24" x1="100.83" y1="118.54" x2="100.79" y2="118.56"/>
    <line class="cls-24" x1="100.79" y1="118.56" x2="95.79" y2="120.93"/>
    <line class="cls-24" x1="95.79" y1="120.93" x2="100.79" y2="118.56"/>
    <line class="cls-24" x1="91.01" y1="146.25" x2="91.09" y2="146.21"/>
    <line class="cls-24" x1="91.09" y1="146.21" x2="91.01" y2="146.25"/>
    <line class="cls-24" x1="86.07" y1="148.58" x2="91.01" y2="146.25"/>
    <line class="cls-24" x1="164.62" y1="119.12" x2="157.03" y2="117.68"/>
    <line class="cls-24" x1="157.03" y1="117.68" x2="164.62" y2="119.12"/>
    <line class="cls-24" x1="156.63" y1="115.94" x2="156.61" y2="115.94"/>
    <line class="cls-24" x1="156.61" y1="115.94" x2="156.63" y2="115.94"/>
    <line class="cls-24" x1="165.02" y1="117.62" x2="156.63" y2="115.94"/>
    <line class="cls-24" x1="156.63" y1="115.94" x2="165.02" y2="117.62"/>
    <line class="cls-24" x1="95.79" y1="120.93" x2="93.57" y2="122.13"/>
    <line class="cls-24" x1="93.57" y1="122.13" x2="95.79" y2="120.93"/>
    <line class="cls-24" x1="86.07" y1="148.58" x2="83.77" y2="149.52"/>
    <line class="cls-24" x1="83.77" y1="149.52" x2="86.07" y2="148.58"/>
    <line class="cls-24" x1="93.57" y1="122.13" x2="91.05" y2="123.49"/>
    <line class="cls-24" x1="91.05" y1="123.49" x2="93.57" y2="122.13"/>
    <line class="cls-24" x1="81.22" y1="150.56" x2="83.77" y2="149.52"/>
    <line class="cls-24" x1="86.45" y1="126.29" x2="91.05" y2="123.49"/>
    <line class="cls-24" x1="91.05" y1="123.49" x2="86.45" y2="126.29"/>
    <line class="cls-24" x1="81.22" y1="150.56" x2="80.06" y2="150.96"/>
    <line class="cls-24" x1="80.06" y1="150.96" x2="81.22" y2="150.56"/>
    <line class="cls-24" x1="80.06" y1="150.96" x2="76.31" y2="152.27"/>
    <line class="cls-24" x1="76.31" y1="152.27" x2="76.86" y2="152.08"/>
    <line class="cls-24" x1="165.41" y1="119.27" x2="164.62" y2="119.12"/>
    <line class="cls-24" x1="164.62" y1="119.12" x2="165.41" y2="119.27"/>
    <line class="cls-24" x1="165.41" y1="119.27" x2="182.14" y2="122.34"/>
    <line class="cls-24" x1="182.14" y1="122.34" x2="165.41" y2="119.27"/>
    <line class="cls-24" x1="165.02" y1="117.62" x2="173.42" y2="119.29"/>
    <line class="cls-24" x1="173.42" y1="119.29" x2="165.02" y2="117.62"/>
    <line class="cls-24" x1="86.45" y1="126.29" x2="86.38" y2="126.33"/>
    <line class="cls-24" x1="86.38" y1="126.33" x2="86.45" y2="126.29"/>
    <line class="cls-24" x1="86.38" y1="126.33" x2="81.63" y2="129.53"/>
    <line class="cls-24" x1="81.63" y1="129.53" x2="86.38" y2="126.33"/>
    <line class="cls-24" x1="76.31" y1="152.27" x2="72.65" y2="136.55"/>
    <line class="cls-24" x1="72.65" y1="136.55" x2="76.31" y2="152.27"/>
    <line class="cls-24" x1="89.62" y1="158.07" x2="76.31" y2="152.27"/>
    <line class="cls-24" x1="76.31" y1="152.27" x2="89.62" y2="158.07"/>
    <line class="cls-24" x1="81.63" y1="129.53" x2="79.49" y2="131.13"/>
    <line class="cls-24" x1="79.49" y1="131.13" x2="81.63" y2="129.53"/>
    <line class="cls-24" x1="77.11" y1="132.91" x2="79.49" y2="131.13"/>
    <line class="cls-24" x1="79.49" y1="131.13" x2="77.11" y2="132.91"/>
    <line class="cls-24" x1="77.11" y1="132.91" x2="72.65" y2="136.55"/>
    <line class="cls-24" x1="72.65" y1="136.55" x2="77.11" y2="132.91"/>
    <line class="cls-24" x1="173.42" y1="119.29" x2="181.83" y2="120.97"/>
    <line class="cls-24" x1="181.83" y1="120.97" x2="173.42" y2="119.29"/>
    <line class="cls-24" x1="72.65" y1="136.55" x2="76.44" y2="138.8"/>
    <line class="cls-24" x1="76.44" y1="138.8" x2="72.65" y2="136.55"/>
    <line class="cls-24" x1="86.53" y1="144.72" x2="76.44" y2="138.8"/>
    <line class="cls-24" x1="76.44" y1="138.8" x2="86.53" y2="144.72"/>
    <line class="cls-24" x1="182.14" y1="122.34" x2="196.61" y2="124.99"/>
    <line class="cls-24" x1="196.61" y1="124.99" x2="182.14" y2="122.34"/>
    <line class="cls-24" x1="181.83" y1="120.97" x2="182.1" y2="121.03"/>
    <line class="cls-24" x1="182.1" y1="121.03" x2="181.83" y2="120.97"/>
    <line class="cls-24" x1="182.1" y1="121.03" x2="190.2" y2="122.56"/>
    <line class="cls-24" x1="190.2" y1="122.56" x2="182.1" y2="121.03"/>
    <line class="cls-24" x1="89.62" y1="158.07" x2="89.64" y2="158.08"/>
    <line class="cls-24" x1="89.64" y1="158.08" x2="89.62" y2="158.07"/>
    <line class="cls-24" x1="102.03" y1="163.73" x2="89.64" y2="158.08"/>
    <line class="cls-24" x1="89.64" y1="158.08" x2="102.03" y2="163.73"/>
    <line class="cls-24" x1="190.2" y1="122.56" x2="198.58" y2="124.15"/>
    <line class="cls-24" x1="198.58" y1="124.15" x2="190.2" y2="122.56"/>
    <line class="cls-24" x1="86.53" y1="144.72" x2="96.13" y2="150.35"/>
    <line class="cls-24" x1="198.88" y1="125.4" x2="196.61" y2="124.99"/>
    <line class="cls-24" x1="196.61" y1="124.99" x2="198.88" y2="125.4"/>
    <line class="cls-24" x1="209.48" y1="127.28" x2="198.88" y2="125.4"/>
    <line class="cls-24" x1="198.88" y1="125.4" x2="209.48" y2="127.28"/>
    <line class="cls-24" x1="206.96" y1="125.73" x2="198.58" y2="124.15"/>
    <line class="cls-24" x1="198.58" y1="124.15" x2="206.96" y2="125.73"/>
    <line class="cls-24" x1="103.04" y1="164.2" x2="102.03" y2="163.73"/>
    <line class="cls-24" x1="102.03" y1="163.73" x2="103.04" y2="164.2"/>
    <line class="cls-24" x1="114.67" y1="169.71" x2="103.04" y2="164.2"/>
    <line class="cls-24" x1="103.04" y1="164.2" x2="114.67" y2="169.71"/>
    <line class="cls-24" x1="96.13" y1="150.35" x2="100.38" y2="152.8"/>
    <line class="cls-24" x1="100.38" y1="152.8" x2="96.13" y2="150.35"/>
    <line class="cls-24" x1="206.96" y1="125.73" x2="207.79" y2="125.89"/>
    <line class="cls-24" x1="207.79" y1="125.89" x2="206.96" y2="125.73"/>
    <line class="cls-24" x1="207.79" y1="125.89" x2="210.71" y2="126.43"/>
    <line class="cls-24" x1="210.71" y1="126.43" x2="207.79" y2="125.89"/>
    <line class="cls-24" x1="215.58" y1="128.33" x2="209.48" y2="127.28"/>
    <line class="cls-24" x1="209.48" y1="127.28" x2="215.58" y2="128.33"/>
    <line class="cls-24" x1="116.92" y1="162.35" x2="100.38" y2="152.8"/>
    <line class="cls-24" x1="100.38" y1="152.8" x2="116.92" y2="162.35"/>
    <line class="cls-24" x1="210.71" y1="126.43" x2="215.32" y2="127.25"/>
    <line class="cls-24" x1="215.32" y1="127.25" x2="210.71" y2="126.43"/>
    <line class="cls-24" x1="215.58" y1="128.33" x2="232.26" y2="131.2"/>
    <line class="cls-24" x1="232.26" y1="131.2" x2="215.58" y2="128.33"/>
    <line class="cls-24" x1="215.32" y1="127.25" x2="232.04" y2="130.23"/>
    <line class="cls-24" x1="232.04" y1="130.23" x2="215.32" y2="127.25"/>
    <line class="cls-24" x1="116.5" y1="170.61" x2="114.67" y2="169.71"/>
    <line class="cls-24" x1="114.67" y1="169.71" x2="116.5" y2="170.61"/>
    <line class="cls-24" x1="127.54" y1="176.02" x2="116.5" y2="170.61"/>
    <line class="cls-24" x1="116.5" y1="170.61" x2="127.54" y2="176.02"/>
    <line class="cls-24" x1="116.92" y1="162.35" x2="128.02" y2="168.69"/>
    <line class="cls-24" x1="128.02" y1="168.69" x2="116.92" y2="162.35"/>
    <line class="cls-24" x1="238.11" y1="132.21" x2="232.26" y2="131.2"/>
    <line class="cls-24" x1="232.26" y1="131.2" x2="238.11" y2="132.21"/>
    <line class="cls-24" x1="232.04" y1="130.23" x2="236.74" y2="131.07"/>
    <line class="cls-24" x1="236.74" y1="131.07" x2="232.04" y2="130.23"/>
    <line class="cls-24" x1="236.74" y1="131.07" x2="248.72" y2="133.08"/>
    <line class="cls-24" x1="248.72" y1="133.08" x2="236.74" y2="131.07"/>
    <line class="cls-24" x1="130.02" y1="177.27" x2="127.54" y2="176.02"/>
    <line class="cls-24" x1="127.54" y1="176.02" x2="130.02" y2="177.27"/>
    <line class="cls-24" x1="265.58" y1="136.7" x2="238.11" y2="132.21"/>
    <line class="cls-24" x1="238.11" y1="132.21" x2="265.58" y2="136.7"/>
    <line class="cls-24" x1="130.02" y1="177.27" x2="140.64" y2="182.63"/>
    <line class="cls-24" x1="140.64" y1="182.63" x2="130.02" y2="177.27"/>
    <line class="cls-24" x1="128.02" y1="168.69" x2="139.09" y2="175"/>
    <line class="cls-24" x1="139.09" y1="175" x2="128.02" y2="168.69"/>
    <line class="cls-24" x1="248.72" y1="133.08" x2="262.8" y2="135.44"/>
    <line class="cls-24" x1="262.8" y1="135.44" x2="248.72" y2="133.08"/>
    <line class="cls-24" x1="140.64" y1="182.63" x2="143.6" y2="184.16"/>
    <line class="cls-24" x1="143.6" y1="184.16" x2="140.64" y2="182.63"/>
    <line class="cls-24" x1="153.97" y1="189.54" x2="143.6" y2="184.16"/>
    <line class="cls-24" x1="143.6" y1="184.16" x2="153.97" y2="189.54"/>
    <line class="cls-24" x1="155.63" y1="184.41" x2="139.09" y2="175"/>
    <line class="cls-24" x1="139.09" y1="175" x2="155.63" y2="184.41"/>
    <line class="cls-24" x1="262.8" y1="135.44" x2="265.38" y2="135.85"/>
    <line class="cls-24" x1="265.38" y1="135.85" x2="262.8" y2="135.44"/>
    <line class="cls-24" x1="265.58" y1="136.7" x2="265.58" y2="136.7"/>
    <line class="cls-24" x1="265.58" y1="136.7" x2="265.58" y2="136.7"/>
    <line class="cls-24" x1="266.29" y1="136.82" x2="265.58" y2="136.7"/>
    <line class="cls-24" x1="265.58" y1="136.7" x2="266.29" y2="136.82"/>
    <line class="cls-24" x1="265.38" y1="135.85" x2="265.38" y2="135.85"/>
    <line class="cls-24" x1="265.38" y1="135.85" x2="265.38" y2="135.85"/>
    <line class="cls-24" x1="265.38" y1="135.85" x2="282.01" y2="138.47"/>
    <line class="cls-24" x1="282.01" y1="138.47" x2="265.38" y2="135.85"/>
    <line class="cls-24" x1="286.59" y1="139.98" x2="266.29" y2="136.82"/>
    <line class="cls-24" x1="286.45" y1="139.95" x2="286.59" y2="139.98"/>
    <line class="cls-24" x1="266.29" y1="136.82" x2="286.45" y2="139.95"/>
    <path class="cls-37" d="M130.53,113.83c-14.16,16.81-31.35,31.16-52.98,38.46"/>
    <path class="cls-24" d="M157.23,191.26l-3.26-1.73M153.97,189.54l3.26,1.73M158.62,192.01l-1.4-.74M157.23,191.26l1.4.74M167.53,196.73l-8.9-4.73M158.62,192.01l8.9,4.73M155.63,184.41l7.4,4.21M163.03,188.62l-7.4-4.21M282.01,138.47l7.33,1.16M289.35,139.63l-7.33-1.16M286.59,139.98l12.21,1.8M298.8,141.78l-12.21-1.8"/>
    <path class="cls-24" d="M167.68,191.26l-4.65-2.65M163.03,188.62l4.65,2.65M289.35,139.63l2.87.42M292.22,140.06l-2.87-.42M167.53,196.73l3.37,1.83M170.9,198.56l-3.37-1.83M298.62,141l-6.4-.94M292.22,140.06l6.4.94M170.9,198.56l7.47,4.05M178.37,202.61l-7.47-4.05M183.24,200.16l-15.56-8.9M167.68,191.26l15.56,8.9M298.8,141.78l1.06.16M299.86,141.93l-1.06-.16M314.27,143.31l-15.65-2.31M298.62,141l15.65,2.31M299.86,141.93l11.89,1.75M311.74,143.69l-11.89-1.75M178.37,202.61l6.25,3.45M184.61,206.06l-6.25-3.45M331.93,146.48l-20.19-2.79M311.74,143.69l20.19,2.79M184.62,206.06h0M184.61,206.06h0M184.62,206.06l11.06,6.11M195.67,212.17l-11.06-6.11M331.75,145.72l-17.49-2.41M314.27,143.31l17.49,2.41M183.24,200.17h0M183.24,200.16h0M183.24,200.17l17.52,10.02M200.76,210.18l-17.52-10.02M195.67,212.17l16.48,9.31M212.15,221.48l-16.48-9.31M331.93,146.48l4.66.64M336.6,147.12l-4.66-.64M338.97,146.71l-7.22-.99M331.75,145.72l7.22.99M336.6,147.12l24.56,3.15M361.15,150.27l-24.56-3.15M210.89,216.06l-10.12-5.87M200.76,210.18l10.12,5.87M363.45,149.82l-24.47-3.11M338.97,146.71l24.47,3.11M213.31,222.13l-1.16-.66M212.15,221.48l1.16.66M213.31,222.13l17.96,10.35M231.27,232.49l-17.96-10.35M210.89,216.06l1.48.86M212.37,216.92l-1.48-.86M212.37,216.92l16.13,9.36M228.5,226.28l-16.13-9.36M361.15,150.27l3.8.45M364.96,150.72l-3.8-.45M363.45,149.82l1.34.16M364.79,149.98l-1.34-.16M385.42,153.13l-20.47-2.41M364.96,150.72l20.47,2.41M387.67,152.65l-22.88-2.67M364.79,149.98l22.88,2.67M234.62,234.44l-3.35-1.95M231.27,232.49l3.35,1.95M228.5,226.28l10.1,5.96M238.6,232.24l-10.1-5.96M239.83,237.51l-5.21-3.07M234.62,234.44l5.21,3.07M239.83,237.51l14.95,8.82M254.78,246.33l-14.95-8.82M238.6,232.24l12.83,7.57M251.43,239.81l-12.83-7.57M397.87,154.49l-12.45-1.36M396.29,154.32l1.59.17M385.42,153.13l10.86,1.19M397.7,153.74l-10.03-1.09M387.67,152.65l10.03,1.09M397.87,154.49l-.17-.75M391.53,162.11l6.35-7.62M397.7,153.74l.17.75M397.87,154.49l-6.35,7.62M391.19,160.42l6.51-6.68M397.7,153.74l-6.51,6.68M251.43,239.81l14.97,9M266.4,248.81l-14.97-9M254.78,246.33l12.85,7.73M267.62,254.06l-12.85-7.73M391.53,162.11l-6.33,7.6M385.19,169.71l6.33-7.6M391.19,160.42l-6.53,6.69M384.66,167.11l6.53-6.69M385.19,169.71l-6.32,7.59M378.87,177.3l6.32-7.59M384.66,167.11l-6.54,6.7M378.12,173.81l6.54-6.7M372.56,184.87l6.31-7.57M378.87,177.3l-6.31,7.57M378.12,173.81l-6.55,6.71M371.57,180.52l6.55-6.71M372.56,184.87l-2.17,2.61M370.39,187.48l2.17-2.61M370.39,187.48l-4.19,4.84M366.2,192.32l4.19-4.84M371.57,180.52l-1.74,1.78M369.84,182.3l1.74-1.78M369.84,182.3l-4.75,5.07M365.09,187.37l4.75-5.07M366.2,192.32l-6.39,7.38M359.81,199.7l6.39-7.38M267.62,254.06l7.48,4.5M275.1,258.55l-7.48-4.5M358.62,194.28l6.47-6.91M365.09,187.37l-6.47,6.91M359.81,199.7l-6.38,7.36M353.43,207.07l6.38-7.36M266.4,248.81l6.78,4.07M273.18,252.89l-6.78-4.07M352.13,201.21l6.48-6.92M358.62,194.28l-6.48,6.92M353.43,207.07l-6.35,7.33M347.08,214.4l6.35-7.33M345.64,208.14l6.49-6.94M352.13,201.21l-6.49,6.94M347.08,214.4l-.02.02M347.06,214.42l.02-.02M347.06,214.42l-4.36,5.04M342.7,219.45l4.36-5.04M295.53,271.07l-20.43-12.52M275.1,258.55l20.43,12.52M342.7,219.45l-2.02,2.25M340.68,221.7l2.02-2.25M345.63,208.16h.01M345.64,208.14h-.01M342.18,211.84l3.45-3.69M345.63,208.16l-3.45,3.69M294.31,265.83l-21.13-12.94M273.18,252.89l21.13,12.94M340.68,221.7l-6.45,7.16M334.23,228.86l6.45-7.16M339.18,215.17l3-3.33M342.18,211.84l-3,3.33M339.18,215.17l-6.41,7.13M332.77,222.3l6.41-7.13M327.79,236l6.44-7.14M334.23,228.86l-6.44,7.14M332.77,222.3l-6.43,7.14M326.34,229.44l6.43-7.14M321.37,243.12l6.42-7.13M327.79,236l-6.42,7.13M326.34,229.44l-6.44,7.16M319.9,236.6l6.44-7.16M314.91,250.29l6.46-7.17M321.37,243.12l-6.46,7.17M319.9,236.6l-5.27,5.86M314.63,242.46l5.27-5.86M308.47,257.2l6.44-6.91M314.91,250.29l-6.44,6.91M314.63,242.46l-1.17,1.34M313.47,243.8l1.17-1.34M313.47,243.8l-6.37,7.33M307.1,251.13l6.37-7.33M308.47,257.2l-6.48,6.94M302,264.14l6.48-6.94M307.1,251.13l-6.38,7.34M300.71,258.47l6.38-7.34M302,264.14l-6.46,6.93M295.53,271.07l6.46-6.93M300.71,258.47l-6.4,7.36M294.31,265.83l6.4-7.36M295.53,271.07l-1.22-5.24M294.31,265.83l1.22,5.24"/>
    <line class="cls-16" x1="21.4" y1="124.89" x2="68.28" y2="117.16"/>
    <g>
      <line class="cls-36" x1="12.5" y1="126.26" x2="54.12" y2="119.4"/>
      <path class="cls-50" d="M14.28,125.97l1.58-3.91-.13-.06-5.42,3.26c-1.95.78-3.89,1.55-5.84,2.33,2.09.11,4.19.22,6.28.33l6.18,1.35.11-.08-2.75-3.22Z"/>
    </g>
    <text class="cls-7" transform="translate(38.93 140.88)"><tspan x="0" y="0">z</tspan></text>
    <text class="cls-45" transform="translate(45.94 145.54) scale(.58)"><tspan x="0" y="0">0</tspan></text>
    <g>
      <line class="cls-9" x1="102.58" y1="129.14" x2="89.83" y2="100.36"/>
      <path class="cls-47" d="M90.56,102l-2.41,3.46-.12-.08-.25-6.32c-.42-2.05-.83-4.11-1.25-6.16,1.24,1.69,2.48,3.38,3.72,5.07l4.51,4.43v.14s-4.21-.54-4.21-.54Z"/>
    </g>
    <g>
      <path class="cls-11" d="M159.18,99.87c1.88.86,3.89,2,5.61,3.49,3.19,2.74,3.78,5.26,4.21,7.06.19.82.28,1.59.3,2.32"/>
      <path class="cls-1" d="M160.15,100.35l2.02-1.52-.05-.07h-3.79c-1.24-.21-2.48-.41-3.72-.61,1.04.7,2.08,1.41,3.12,2.12l2.76,2.6h.08s-.42-2.51-.42-2.51Z"/>
      <path class="cls-1" d="M169.27,111.64l2.35-.95.04.08-1.95,3.25c-.47,1.17-.93,2.34-1.4,3.5-.07-1.26-.13-2.51-.2-3.77l-.81-3.71.05-.07,1.93,1.65Z"/>
    </g>
    <text class="cls-2" transform="translate(171.83 104.44)"><tspan x="0" y="0">θ</tspan></text>
    <text class="cls-3" transform="translate(180.67 110.43) scale(.58)"><tspan x="0" y="0">0</tspan></text>
    <path class="cls-29" d="M343.9,214.4l62.51-11.79"/>
    <line class="cls-34" x1="343.9" y1="213.93" x2="406.54" y2="144.41"/>
    <g>
      <path class="cls-11" d="M371.54,190.55c.59.67,1.18,1.46,1.7,2.38,1.68,2.95,1.92,5.74,2.09,7.74.09,1.12.1,2.18.06,3.16"/>
      <path class="cls-1" d="M372.26,191.37l2.41-.78-.02-.09-3.59-1.24c-1.11-.6-2.21-1.19-3.32-1.79.76,1.01,1.51,2.01,2.27,3.02l1.76,3.36.08.02.42-2.51Z"/>
      <path class="cls-1" d="M375.43,202.75l2.31-1.02.04.08-1.85,3.31c-.43,1.18-.85,2.37-1.28,3.55-.11-1.25-.22-2.51-.33-3.76l-.93-3.68.05-.07,1.98,1.59Z"/>
    </g>
    <text class="cls-2" transform="translate(378.12 192.32)"><tspan x="0" y="0">θ</tspan></text>
    <text class="cls-2" transform="translate(386.96 198.32) scale(.58)"><tspan x="0" y="0">l</tspan></text>
    <text class="cls-6" transform="translate(78.07 96.11)"><tspan x="0" y="0">z</tspan></text>
    <text class="cls-7" transform="translate(363 244.31)"><tspan x="0" y="0">X</tspan></text>
    <text class="cls-4" transform="translate(228.5 170.16)"><tspan class="cls-8" x="0" y="0">b</tspan><tspan class="cls-46" x="9" y="0">(</tspan><tspan class="cls-8" x="14.99" y="0">x</tspan><tspan class="cls-46" x="22.98" y="0">)</tspan></text>
    <g>
      <line class="cls-41" x1="29.47" y1="346.3" x2="137.01" y2="345.84"/>
      <line class="cls-30" x1="18.35" y1="346.33" x2="27.57" y2="346.28"/>
      <polyline class="cls-41" points="105.35 257.3 1.93 257.3 1.93 346.42 17.04 346.36"/>
      <line class="cls-30" x1="113.62" y1="257.3" x2="106.93" y2="257.3"/>
      <polyline class="cls-41" points="137.01 295.59 137.01 257.3 116.2 257.3"/>
      <line class="cls-41" x1="137.01" y1="345.26" x2="137.01" y2="295.59"/>
      <line class="cls-22" x1="137.01" y1="346.42" x2="137.01" y2="345.26"/>
      <g>
        <path class="cls-24" d="M61.79,314.23l-5.18,2.5M64.52,312.74l-2.73,1.49M61.79,314.23l2.73-1.49M56.61,316.74l5.18-2.5M64.52,312.74l2.4-1.31M66.92,311.44l-2.4,1.31M50.98,319.12l5.55-2.35M72.12,308.25l-5.2,3.19M56.53,316.78l-5.55,2.35M56.53,316.78l.08-.04M56.61,316.74l-.08.04M66.92,311.44l5.2-3.19M72.12,308.25l.04-.03M72.15,308.22l-.04.03M72.15,308.22l4.87-3.33M77.02,304.89l-4.87,3.33M48.37,320.08l2.61-.95M50.98,319.12l-2.61.95M45.47,321.14l2.9-1.06M48.37,320.08l-2.9,1.06M77.02,304.89l2.43-1.84M79.45,303.05l-2.43,1.84M44.15,321.55l1.33-.41M45.47,321.14l-1.33.41M39.85,322.89l4.3-1.34M44.15,321.55l-4.3,1.34M79.45,303.05l2.34-1.77M81.79,301.28l-2.34,1.77M39.85,322.89l-7.58-14.7M32.27,308.19l7.58,14.7M37.71,323.56l2.14-.67M81.79,301.28l4.69-3.93M86.48,297.35l-4.69,3.93M39.85,322.89l-2.14.67M86.56,297.28l-.08.07M86.48,297.35l.08-.07M91.14,293.05l-4.58,4.23M86.56,297.28l4.58-4.23M91.14,293.05l2.02-2.05M93.16,291l-2.02,2.05M93.16,291l2.42-2.45M95.58,288.55l-2.42,2.45M95.58,288.55l4.01-4.44M99.59,284.11l-4.01,4.44M99.59,284.11l.76-.94M98.51,282.01l1.08,2.1M99.59,284.11l-1.08-2.1M100.35,283.17l-.76.94M99.35,281.23l-.84.79M98.51,282.01l.84-.79M98.51,282.01l-4.71.55M93.8,282.56l4.71-.55M93.8,282.56l-1.23.14M92.57,282.71l1.23-.14M92.57,282.71l-3.4.55M89.17,283.25l3.4-.55M89.17,283.25l-2.84.46M86.33,283.71l2.84-.46M86.33,283.71l-1.72.36M84.61,284.07l1.72-.36M84.61,284.07l-4.38.92M80.23,284.99l4.38-.92M80.23,284.99l-.11.03M80.12,285.02l.11-.03M80.12,285.02l-5.92,1.54M74.2,286.56l5.92-1.54M36.96,304.63l-4.69,3.56M32.27,308.19l4.69-3.56M32.01,309l.26-.81M32.27,308.19l-.26.81M74.2,286.56l-2.8.88M71.4,287.44l2.8-.88M68.49,288.35l2.91-.91M71.4,287.44l-2.91.91M36.96,304.63l2.54-1.75M39.51,302.88l-2.54,1.75M68.49,288.35l-5.54,2.03M62.95,290.38l5.54-2.03M39.51,302.88l2.29-1.57M41.8,301.31l-2.29,1.57M41.8,301.31l5.13-3.16M46.92,298.15l-5.13,3.16M62.95,290.38h0M62.95,290.38l-.04.02M62.91,290.4l.04-.02M62.91,290.4l-5.61,2.39M57.3,292.78l5.61-2.39M62.95,290.38h0M47,298.11l-.08.04M47,298.11l5.04-2.77M52.05,295.34l-5.04,2.77M46.92,298.15l.08-.04M54.84,293.98l2.46-1.2M57.3,292.78l-2.46,1.2M52.05,295.34l2.79-1.36M54.84,293.98l-2.79,1.36M32.01,309l-.74,2.07M31.26,311.07l.74-2.07M101.11,282.22l-.76.94M100.35,283.17l.76-.94M100.19,280.44l-.84.79M99.35,281.23l.84-.79M37.71,323.56h0M37.71,323.56h0M35.86,324.45l1.85-.88M37.71,323.56l-1.85.88M101.86,281.28l-.76.94M101.11,282.22l.76-.94M101.03,279.66l-.84.78M100.19,280.44l.84-.78M31.26,311.07l-.71,1.97M30.55,313.04l.71-1.97M101.03,279.66h0M101.03,279.66h0M102.55,280.42l-.69.86M101.86,281.28l.69-.86M101.82,278.78l-.8.87M101.03,279.66l.8-.87M30.22,313.87l.34-.83M30.55,313.04l-.34.83M35.72,324.53l.14-.09M35.86,324.45l-.14.09M102.62,280.33l-.07.09M102.55,280.42l.07-.09M34.1,325.57l1.62-1.04M35.72,324.53l-1.62,1.04M102.62,280.33l1.46-2.01M104.08,278.32l-1.46,2.01M101.82,278.78l.8-.87M102.62,277.91l-.8.87M30.22,313.87l-1.31,3.24M28.9,317.11l1.31-3.24M102.62,277.91l.8-.87M103.42,277.04l-.8.87M34.1,325.57l-.24.19M33.86,325.77l.24-.19M33.86,325.77l-1.43,1.17M32.43,326.93l1.43-1.17M104.08,278.32l1.26-1.74M105.34,276.59l-1.26,1.74M103.42,277.04l.03-.03M103.44,277.01l-.03.03M103.44,277.01l.73-.92M104.17,276.09l-.73.92M28.9,317.11l-.92,2.1M27.99,319.21l.92-2.1M104.17,276.09l.75-.96M104.92,275.13l-.75.96M32.43,326.93l-.3.3M32.12,327.23l.3-.3M105.53,276.3l-.19.29M105.34,276.59l.19-.29M30.84,328.52l1.29-1.29M32.12,327.23l-1.29,1.29M27.99,319.21l-.92,2.1M27.07,321.3l.92-2.1M106.42,274.97l-.89,1.33M105.53,276.3l.89-1.33M104.92,275.13l.75-.96M105.68,274.18l-.75.96M105.68,274.18l.07-.09M105.75,274.08l-.07.09M105.75,274.08l.25-.35M106.01,273.73l-.25.35M106.92,274.17l-.5.8M106.42,274.97l.5-.8M106.01,273.73l.39-.58M106.4,273.15l-.39.58M30.84,328.52l-.33.4M30.5,328.92l.33-.4M25.68,324.4l1.39-3.09M27.07,321.3l-1.39,3.09M29.33,330.32l1.17-1.4M30.5,328.92l-1.17,1.4M106.92,274.17l1.36-2.19M108.28,271.97l-1.36,2.19M107.81,271.06l-1.41,2.1M106.4,273.15l1.41-2.1M28.98,330.81l.35-.48M29.33,330.32l-.35.48M28.98,330.81l-.15.21M28.84,331.01l.15-.21M25.68,324.4l-.62,1.38M25.06,325.78l.62-1.38M108.28,271.97l.48-.77M108.75,271.2l-.48.77M108.2,270.47l-.4.59M107.81,271.06l.4-.59M28.84,331.01l-.94,1.32M27.89,332.33l.94-1.32M108.2,270.47l.95-1.62M109.16,268.84l-.95,1.62M108.75,271.2l2.13-3.85M110.88,267.35l-2.13,3.85M24.67,326.65l.39-.87M25.06,325.78l-.39.87M27.89,332.33l-.34.54M27.56,332.87l.34-.54M23.38,329.61l1.28-2.96M24.67,326.65l-1.28,2.96"/>
        <path class="cls-24" d="M26.81,334.06l.75-1.19M27.56,332.87l-.75,1.19M109.16,268.84l1.12-1.91M110.28,266.93l-1.12,1.91M26.81,334.06l-.58,1.06M26.23,335.12l.58-1.06M110.47,266.56l-.19.38M110.28,266.93l.19-.38M26.23,335.12h0M26.23,335.12h0M25.19,337.01l1.03-1.88M26.23,335.12l-1.03,1.88M23.38,329.61h0M23.38,329.61h0M23.38,329.61l-1.44,3.33M21.94,332.95l1.44-3.33"/>
        <path class="cls-24" d="M110.88,267.35h0M110.88,267.35h0M110.93,267.25l-.05.1M110.88,267.35l.05-.1M110.47,266.56h0M110.47,266.56h0M111.71,264.13l-1.24,2.43M110.47,266.56l1.24-2.43M110.93,267.25l1.49-3.01M112.43,264.25l-1.49,3.01M25.19,337.01l-1.42,3.02M23.77,340.03l1.42-3.02M112.26,263.06l-.55,1.07M111.71,264.13l.55-1.07M112.43,264.25l.85-1.91M113.28,262.34l-.85,1.91M21.16,334.96l.78-2.01M21.94,332.95l-.78,2.01M112.46,262.61l-.2.45M112.26,263.06l.2-.45M112.9,261.61l-.45,1M112.46,262.61l.45-1M23.77,340.03l-.1.21M23.67,340.24l.1-.21M21.16,334.96l-.11.29M21.04,335.25l.11-.29M113.28,262.34l.07-.17M113.35,262.18l-.07.17M112.9,261.61l1.09-2.44M113.99,259.17l-1.09,2.44M114.18,260.32l-.83,1.86M113.35,262.18l.83-1.86M23.67,340.24l-1.43,3.5M22.24,343.74l1.43-3.5M21.04,335.25l-1.25,3.21M19.79,338.46l1.25-3.21M114.18,260.32l1.31-3.34M115.49,256.97l-1.31,3.34M115.13,256.26l-1.13,2.91M113.99,259.17l1.13-2.91M19.79,338.46l-.72,2.11M19.07,340.58l.72-2.11M22.24,343.74l-.25.68M21.99,344.42l.25-.68M21.61,345.51l.37-1.09M21.99,344.42l-.37,1.09M20.54,348.63l1.07-3.12M21.61,345.51l-1.07,3.12M19.07,340.58l-.92,2.68M18.15,343.26l.92-2.68M115.49,256.97l.3-.77M115.8,256.2l-.3.77M115.13,256.26l.47-1.2M115.59,255.06l-.47,1.2M117.28,251.89l-1.48,4.31M115.8,256.2l1.48-4.31M115.59,255.06l1.47-4.32M117.06,250.74l-1.47,4.32M18.15,343.26l-.98,3.3M17.17,346.56l.98-3.3M20.54,348.63l-.84,2.83M19.7,351.46l.84-2.83M117.49,251.18l-.21.71M117.28,251.89l.21-.71M117.06,250.74l.07-.25M117.13,250.49l-.07.25M19.21,353.11l.49-1.65M19.7,351.46l-.49,1.65M17.17,346.56l-.44,1.49M16.73,348.05l.44-1.49M118.62,247.37l-1.13,3.81M117.49,251.18l1.13-3.81M117.13,250.49l1.25-4.29M118.39,246.2l-1.25,4.29M16.73,348.05l-1.24,4.9M15.49,352.96l1.24-4.9M18.01,357.85l1.2-4.75M19.21,353.11l-1.2,4.75M119.26,244.95l-.64,2.42M118.62,247.37l.64-2.42M118.39,246.2l.51-1.96M118.9,244.25l-.51,1.96M18.01,357.85l-2.53-4.9M15.49,352.96l2.53,4.9M24.49,351.13l-6.48,6.72M18.01,357.85l6.48-6.72M24.49,351.13l6.49-6.74M30.99,344.39l-6.49,6.74M21.8,345.83l-6.32,7.13M15.49,352.96l6.32-7.13M37.45,337.69l-6.46,6.7M30.99,344.39l6.46-6.7M21.8,345.83l6.3-7.11M28.1,338.72l-6.3,7.11M37.45,337.69l6.43-6.94M43.87,330.75l-6.43,6.94M43.87,330.75l6.39-6.91M50.26,323.84l-6.39,6.91M28.1,338.72l6.29-7.1M34.39,331.62l-6.29,7.1M50.26,323.84l6.4-6.92M56.67,316.92l-6.4,6.92M35.54,330.32l-1.15,1.3M34.39,331.62l1.15-1.3M40.79,324.65l-5.24,5.68M35.54,330.32l5.24-5.68M56.67,316.92l6.42-6.94M63.08,309.99l-6.42,6.94M47.19,317.71l-6.41,6.94M40.79,324.65l6.41-6.94M63.08,309.99l2.01-2.18M65.1,307.81l-2.01,2.18M53.58,310.79l-6.39,6.92M47.19,317.71l6.39-6.92M69.4,302.93l-4.3,4.88M65.1,307.81l4.3-4.88M69.4,302.93l.02-.02M69.42,302.91l-.02.02M69.42,302.91l6.26-7.1M75.68,295.82l-6.26,7.1M53.58,310.79l6.38-6.91M59.96,303.88l-6.38,6.91M81.97,288.69l-6.29,7.13M75.68,295.82l6.29-7.13M62.94,300.65l-2.98,3.23M59.96,303.88l2.98-3.23M66.41,297.08l-3.46,3.57M62.94,300.65l3.46-3.57M66.41,297.08h.01M66.42,297.06h-.01M66.42,297.06l6.52-6.73M72.94,290.33l-6.52,6.73M81.97,288.69l6.3-7.14M88.27,281.54l-6.3,7.14M79.44,283.62l-6.5,6.72M72.94,290.33l6.5-6.72M92.41,276.86l-4.13,4.69M88.27,281.54l4.13-4.69M85.93,276.91l-6.49,6.7M79.44,283.62l6.49-6.7M92.41,276.86l2.12-2.52M94.53,274.33l-2.12,2.52M94.53,274.33l6.16-7.32M100.69,267.01l-6.16,7.32M90.7,271.99l-4.77,4.92M85.93,276.91l4.77-4.92M100.69,267.01l6.18-7.34M106.87,259.67l-6.18,7.34M92.46,270.26l-1.76,1.73M90.7,271.99l1.76-1.73M99.08,263.74l-6.63,6.52M92.46,270.26l6.63-6.52M105.7,257.23l-6.62,6.51M99.08,263.74l6.62-6.51M113.06,252.32l-6.19,7.35M106.87,259.67l6.19-7.35M105.7,257.23l6.6-6.5M112.31,250.73l-6.6,6.5M113.06,252.32l6.2-7.37M119.26,244.95l-6.2,7.37M112.31,250.73l6.59-6.49M118.9,244.25l-6.59,6.49M119.26,244.95l-.36-.7M118.9,244.25l.36.7"/>
      </g>
      <path class="cls-43" d="M79.9,285.09c.26-.08.68-.21,1.19-.34.55-.14.87-.19,1.49-.32.32-.07.48-.1.7-.15.38-.09.69-.16.9-.21"/>
      <path class="cls-43" d="M41.16,322.4c.79-.24,1.81-.55,3.01-.94.67-.22,1.57-.52,3.34-1.12,2.55-.86,2.82-.96,3.03-1.04.83-.31,2-.77,3.39-1.39"/>
      <line class="cls-27" x1="80.82" y1="284.83" x2="83.12" y2="284.34"/>
      <line class="cls-15" x1="46.77" y1="320.6" x2="48.71" y2="319.91"/>
      <line class="cls-15" x1="50.84" y1="319.12" x2="52.79" y2="318.42"/>
      <line class="cls-25" x1="33.37" y1="310.33" x2="39.05" y2="321.34"/>
      <line class="cls-33" x1="34.26" y1="312.05" x2="35.73" y2="314.9"/>
      <line class="cls-12" x1="37.04" y1="317.44" x2="38.49" y2="320.26"/>
      <line class="cls-31" x1="41.16" y1="322.46" x2="40.09" y2="322.81"/>
      <line class="cls-32" x1="39.3" y1="321.83" x2="39.71" y2="322.89"/>
      <line class="cls-18" x1="42.04" y1="323.29" x2="45.41" y2="319.64"/>
      <line class="cls-15" x1="42.75" y1="322.04" x2="44.7" y2="321.34"/>
      <path class="cls-14" d="M37.62,323.56c-.31.11-.75.29-1.26.57-.38.21-.65.39-1.47.99-.1.08-.2.15-.29.21-.73.53-1.12.81-1.3.96-.82.65-1.43,1.24-1.77,1.59-.78.79-1.29,1.43-1.8,2.07-.9,1.13-1.51,2.06-1.92,2.7-.56.87-.97,1.56-1.23,2.01-.6,1.03-1.01,1.82-1.11,2.01-.24.47-.63,1.23-1.59,3.39-.62,1.39-.93,2.09-1.23,2.82-.21.5-.77,1.9-1.92,5.52-.44,1.4-1,3.22-1.62,5.37"/>
      <line class="cls-19" x1="39.3" y1="323.06" x2="38.16" y2="323.42"/>
      <path class="cls-15" d="M34.54,325.39c-.32.22-.65.47-.99.74-.49.4-.91.79-1.28,1.17"/>
      <path class="cls-15" d="M29.48,330.32c-.38.49-.78,1.03-1.17,1.62-.4.59-.75,1.16-1.06,1.71"/>
      <path class="cls-15" d="M25.48,336.68c-.31.56-.62,1.16-.92,1.8-.31.64-.58,1.27-.83,1.87"/>
      <path class="cls-15" d="M21.99,344.77c-.24.61-.47,1.25-.7,1.91-.22.64-.42,1.26-.61,1.87"/>
      <path class="cls-15" d="M19.43,352.68c-.19.61-.38,1.22-.56,1.85-.18.6-.35,1.19-.52,1.78"/>
      <line class="cls-15" x1="19.39" y1="348.55" x2="24.27" y2="343.05"/>
    </g>
    <g>
      <line class="cls-9" x1="102.37" y1="129.2" x2="162.2" y2="94.04"/>
      <path class="cls-47" d="M160.65,94.95l-3.71-2,.06-.13,6.25-.97c1.99-.65,3.99-1.3,5.98-1.95-1.54,1.43-3.07,2.85-4.61,4.28l-3.88,4.99h-.14s.05-4.22.05-4.22Z"/>
    </g>
    <line class="cls-24" x1="96.13" y1="150.35" x2="86.53" y2="144.72"/>
    <path class="cls-20" d="M213.35,128.21c.28.04.6.09.97.16,4.45.72,4.92.93,9.84,1.77,2.12.36,1.58.25,6.3,1.02,3.21.53,3.22.54,7.2,1.2,6.11,1.01,6.43,1.04,9,1.5,2.4.43,2.67.51,4.62.84,2.33.39,3.12.48,6.2.96,2.05.32,1.71.28,5.65.92,2.84.46,5.04.81,7.33,1.17,3.5.55,3.7.58,6.17.97,3.94.62,3.87.63,6.21.99,1.37.21,3.99.62,7.34,1.1,3.55.51,3.7.5,6.55.92,2.91.43,2.88.47,5.78.9,3.04.45,3.21.44,7.54,1.06,2.86.41,2.87.43,6.61.97.89.13,3.16.45,6.1.86,1.96.27,3.57.48,6.7.9,1.68.22,2.85.38,6.64.88,5.9.78,5.81.78,7.99,1.06.93.12.86.11,7.27.92,3.85.49,5.79.73,6.73.85,3.97.51,4.38.58,6.75.88,1.13.14,2.46.3,6.64.79,8.22.95,7.61.85,12.24,1.39,2.95.35,4.78.58,8.01.92,1.78.19,3.25.33,4.23.43"/>
    <path class="cls-21" d="M132.91,113.16c.9.17,2.35.45,4.14.81,2.61.52,3.19.67,5.31,1.08,1.51.29,1.36.25,4.59.86,1.17.22,1.66.31,5.22.99,3.54.67,5.31,1.01,5.45,1.04,5.06.94,5.64.98,8.28,1.53.63.13,1.56.33,2.91.59.5.1,1.39.25,3.15.57,1.55.28,1.64.29,2.34.42,1.34.24,2,.36,2.67.49,1.04.2,1.33.28,2.42.48.62.12,1.06.19,1.48.27,2.8.5,2.54.46,4.1.73,2.04.36,2.67.44,4.08.74.48.1.51.11.99.21,1.29.26,1.78.32,3.44.62,1.08.19.97.18,2.64.48.95.17,1.63.29,1.97.35,1.75.31,2.65.48,5.49.99,3.2.58,4.81.87,6.03,1.08"/>
    <g>
      <line class="cls-1" x1="180.44" y1="198.56" x2="254.53" y2="134.05"/>
      <g>
        <line class="cls-11" x1="186.58" y1="193.21" x2="248.38" y2="139.41"/>
        <path class="cls-1" d="M187.94,192.03l-.71-4.16-.15.02-2.9,5.62c-1.25,1.68-2.5,3.37-3.74,5.05,1.84-1,3.68-2.01,5.52-3.01l5.96-2.1.05-.13-4.03-1.29Z"/>
        <path class="cls-1" d="M247.03,140.59l-4.02-1.28.04-.14,5.96-2.1c1.84-1,3.68-2.01,5.52-3.01-1.25,1.68-2.5,3.37-3.74,5.05l-2.9,5.62-.13.03-.73-4.17Z"/>
      </g>
    </g>
    <path class="cls-39" d="M108.75,269.43c.19-.32.39-.65.6-1.01.63-1.09,2.15-3.76,3.78-7.41,1.34-3.01,2.18-5.37,2.67-6.75.64-1.8,1.13-3.38,1.5-4.62"/>
    <path class="cls-38" d="M99.73,280.69c.69-.63,1.56-1.46,2.52-2.49,1.23-1.33,2.09-2.41,2.64-3.12.3-.39,1.17-1.51,2.22-3.06.27-.41.87-1.3,1.65-2.59"/>
    <path class="cls-27" d="M98.91,281.7c.85-.88,1.7-1.76,2.55-2.64"/>
    <path class="cls-27" d="M104.82,275.13c.92-1.29,1.84-2.58,2.76-3.87"/>
    <path class="cls-27" d="M110.28,266.83c.67-1.33,1.34-2.66,2.01-3.99"/>
    <path class="cls-27" d="M114.35,258.1c.52-1.4,1.04-2.8,1.56-4.2"/>
    <path class="cls-27" d="M117.05,250.48c.29-.8.58-1.6.87-2.4"/>
    <line class="cls-13" x1="108.9" y1="271.06" x2="110.53" y2="268.17"/>
    <path class="cls-29" d="M66.53,302.01h92.66"/>
    <line class="cls-34" x1="148.8" y1="211.94" x2="66.53" y2="302.01"/>
    <line class="cls-34" x1="66.91" y1="301.67" x2="152.88" y2="251.89"/>
    <text class="cls-2" transform="translate(106.42 295.62)"><tspan x="0" y="0">θ</tspan></text>
    <text class="cls-3" transform="translate(115.26 301.61) scale(.58)"><tspan x="0" y="0">0</tspan></text>
    <g>
      <path class="cls-11" d="M99.49,288.15c.28.36.55.76.81,1.19,1.39,2.35,1.59,4.56,1.74,6.15.05.51.07,1.01.07,1.49"/>
      <path class="cls-1" d="M100.16,289.02l2.43-.71-.02-.09-3.55-1.34c-1.09-.63-2.18-1.26-3.27-1.88.73,1.03,1.45,2.05,2.18,3.08l1.66,3.41.08.02.49-2.49Z"/>
      <path class="cls-1" d="M102.08,295.9l2.28-1.1.04.08-1.74,3.37c-.39,1.2-.78,2.39-1.16,3.59-.15-1.25-.3-2.5-.45-3.75l-1.05-3.64.04-.07,2.04,1.52Z"/>
    </g>
    <g>
      <path class="cls-11" d="M129.78,239.89c4.06,2.83,9.07,7.32,13.03,14.15,5.25,9.05,6,17.63,6.53,23.76.67,7.76,0,14.51-.99,19.76"/>
      <path class="cls-1" d="M130.65,240.53l2.27-1.11-.04-.08-3.72-.72c-1.18-.43-2.36-.87-3.54-1.3.89.89,1.78,1.78,2.67,2.67l2.22,3.08h.08s.06-2.53.06-2.53Z"/>
      <path class="cls-1" d="M148.52,296.49l2.39-.84.03.08-2.1,3.16c-.52,1.15-1.04,2.29-1.55,3.44-.01-1.26-.02-2.51-.03-3.77l-.64-3.74.05-.06,1.86,1.74Z"/>
    </g>
    <text class="cls-2" transform="translate(152.88 270.26)"><tspan x="0" y="0">θ</tspan></text>
    <text class="cls-2" transform="translate(161.72 276.26) scale(.58)"><tspan x="0" y="0">l</tspan></text>
    <line class="cls-16" x1="66.57" y1="256.75" x2="66.57" y2="304.07"/>
    <g>
      <polyline class="cls-36" points="66.57 194.49 66.57 253 66.57 256.18"/>
      <path class="cls-50" d="M66.57,196.29l3.6,2.19.08-.12-2.33-5.88c-.45-2.05-.9-4.09-1.35-6.14-.45,2.05-.9,4.09-1.35,6.14l-2.33,5.88.06.12,3.62-2.19Z"/>
    </g>
    <text class="cls-7" transform="translate(74.39 201.82)"><tspan x="0" y="0">Y</tspan></text>
    <g>
      <path class="cls-44" d="M77.75,226.03c2.81.92,4.55,2.21,4.55,3.65,0,2.78-6.57,5.04-14.67,5.04-5.14,0-9.66-.91-12.28-2.28"/>
      <path class="cls-1" d="M79.11,226.5l2.33-2.44-.08-.08-4.99.82c-1.68,0-3.35,0-5.03,0,1.52.7,3.05,1.4,4.57,2.11l4.19,2.83.11-.03-1.09-3.21Z"/>
    </g>
    <text class="cls-3" transform="translate(47.54 226.46)"><tspan x="0" y="0">Ω</tspan></text>
    <path class="cls-14" d="M96.66,282.2c-.57.02-1.49.08-2.61.23-1.07.14-1.35.24-3.38.58-1.67.29-1.83.28-2.97.49-1.29.24-2.32.47-2.97.63"/>
    <path class="cls-27" d="M96.15,282.22c.78-.07,1.57-.14,2.35-.21"/>
    <path class="cls-27" d="M88.28,283.17c1.37-.18,2.75-.36,4.12-.53"/>
    <path class="cls-27" d="M85.01,284.07c-1.4.25-2.79.51-4.19.76"/>
    <line class="cls-15" x1="84.05" y1="286.33" x2="88.5" y2="281.28"/>
    <circle class="cls-40" cx="48.37" cy="297.35" r=".82"/>
    <circle class="cls-40" cx="36.06" cy="329.61" r=".82"/>
    <path class="cls-28" d="M48.37,297.35c-2.15,4.35-3.72,8.09-4.81,10.89-.88,2.25-1.45,3.87-3.72,10.44-1.14,3.28-2.62,7.58-3.78,10.93"/>
    <g>
      <line class="cls-17" x1="66.24" y1="302.01" x2="53.5" y2="299.08"/>
      <path class="cls-49" d="M54.37,299.28l.66,2-.07.03-2.6-1.8c-.95-.45-1.89-.9-2.84-1.35,1.05,0,2.1.02,3.14.03l3.12-.48.05.04-1.47,1.52Z"/>
    </g>
    <text class="cls-48" transform="translate(35.58 290.33)"><tspan x="0" y="0">r</tspan></text>
    <text class="cls-48" transform="translate(42.24 295.33) scale(.58)"><tspan x="0" y="0">m</tspan></text>
    <text/>
    <text class="cls-6" transform="translate(301.8 210.68) scale(.58)"><tspan x="0" y="0">ξ</tspan></text>
    <text class="cls-6" transform="translate(304.19 179.25) scale(.58)"><tspan x="0" y="0">η</tspan></text>
    <text class="cls-6" transform="translate(268.74 177.85) scale(.58)"><tspan x="0" y="0">ζ</tspan></text>
    <g>
      <line class="cls-9" x1="286.84" y1="194.12" x2="297.79" y2="179.77"/>
      <path class="cls-47" d="M296.7,181.2l-4.19-.45v-.15s5.43-3.25,5.43-3.25c1.6-1.35,3.2-2.71,4.8-4.06-.88,1.9-1.77,3.8-2.65,5.7l-1.71,6.09-.12.06-1.55-3.94Z"/>
    </g>
    <g>
      <line class="cls-9" x1="286.84" y1="194.12" x2="279.29" y2="182.47"/>
      <path class="cls-47" d="M280.26,183.98l-1.83,3.8-.14-.06-1.24-6.2c-.74-1.96-1.47-3.92-2.21-5.89,1.49,1.47,2.98,2.95,4.47,4.42l5.15,3.66.02.14-4.23.13Z"/>
    </g>
    <g>
      <line class="cls-9" x1="286.84" y1="194.33" x2="300.23" y2="199.06"/>
      <path class="cls-47" d="M298.54,198.46l-.87-4.13.14-.04,4.76,4.15c1.78,1.11,3.56,2.21,5.34,3.32-2.08-.26-4.16-.51-6.24-.77l-6.32.25-.1-.1,3.27-2.69Z"/>
    </g>
  </g>
</svg>