<?xml version="1.0" encoding="UTF-8"?>
<svg id="Layer_2" data-name="Layer 2" xmlns="http://www.w3.org/2000/svg" xmlns:xlink="http://www.w3.org/1999/xlink" viewBox="0 0 356.64 269.78">
  <defs>
    <style>
      .cls-1, .cls-2, .cls-3, .cls-4, .cls-5 {
        font-family: TimesNewRomanPSMT, 'Times New Roman';
      }

      .cls-1, .cls-2, .cls-6, .cls-7, .cls-8, .cls-9, .cls-10 {
        fill: #6d6e71;
      }

      .cls-1, .cls-11, .cls-12, .cls-13, .cls-8, .cls-14 {
        font-size: 18px;
      }

      .cls-15 {
        stroke: #ed1c24;
      }

      .cls-15, .cls-16, .cls-17, .cls-18, .cls-19, .cls-20, .cls-21, .cls-22, .cls-23, .cls-24, .cls-25, .cls-26, .cls-27, .cls-28 {
        stroke-linecap: round;
      }

      .cls-15, .cls-16, .cls-17, .cls-19, .cls-20, .cls-21, .cls-22, .cls-23, .cls-24, .cls-25, .cls-26, .cls-27, .cls-28 {
        stroke-linejoin: round;
      }

      .cls-15, .cls-16, .cls-18, .cls-19, .cls-20, .cls-21, .cls-22, .cls-29, .cls-24, .cls-30, .cls-25, .cls-26, .cls-27 {
        fill: none;
      }

      .cls-16, .cls-21, .cls-24 {
        stroke-dasharray: 5 5 0 0 0 0;
      }

      .cls-16, .cls-21, .cls-25 {
        stroke: #2e3192;
      }

      .cls-16, .cls-31, .cls-30, .cls-26 {
        stroke-width: .75px;
      }

      .cls-17, .cls-18, .cls-19, .cls-20, .cls-22, .cls-23, .cls-24, .cls-28 {
        stroke-width: 2px;
      }

      .cls-17, .cls-19, .cls-20, .cls-22, .cls-23, .cls-24, .cls-28 {
        stroke: #231f20;
      }

      .cls-17, .cls-23 {
        fill: #f1f2f2;
      }

      .cls-18, .cls-29, .cls-31, .cls-30 {
        stroke-miterlimit: 10;
      }

      .cls-18, .cls-29, .cls-31, .cls-30, .cls-26, .cls-27 {
        stroke: #6d6e71;
      }

      .cls-32, .cls-28 {
        fill: #fff;
      }

      .cls-2, .cls-4 {
        font-size: 14px;
      }

      .cls-33, .cls-11, .cls-7, .cls-34, .cls-13, .cls-35, .cls-8, .cls-9, .cls-10 {
        font-family: TimesNewRomanPS-ItalicMT, 'Times New Roman';
        font-style: italic;
      }

      .cls-36, .cls-11, .cls-34 {
        fill: #ed1c24;
      }

      .cls-19 {
        stroke-dasharray: 5.01 5.01 0 0 0 0;
      }

      .cls-22 {
        stroke-dasharray: 5.09 5.09 0 0 0 0;
      }

      .cls-23 {
        stroke-dasharray: 5 7 0 0 0 0;
      }

      .cls-3, .cls-37, .cls-4, .cls-13, .cls-35, .cls-14 {
        fill: #2e3192;
      }

      .cls-31 {
        fill: url(#linear-gradient);
      }

      .cls-27 {
        stroke-width: .5px;
      }

      .cls-7, .cls-35 {
        font-size: 16px;
      }

      .cls-9 {
        letter-spacing: -.02em;
      }

      .cls-9, .cls-10 {
        font-size: 28px;
      }
    </style>
    <linearGradient id="linear-gradient" x1="71.49" y1="166.18" x2="71.49" y2="166.18" gradientUnits="userSpaceOnUse">
      <stop offset="0" stop-color="#fff"/>
      <stop offset="1" stop-color="#000"/>
    </linearGradient>
  </defs>
  <g id="Layer_1-2" data-name="Layer 1">
    <ellipse class="cls-28" cx="70.95" cy="69.91" rx="67.54" ry="11.33"/>
    <path class="cls-20" d="M112.1,168.03c-11.39,1.47-25.66,2.35-41.15,2.35-37.3,0-67.54-5.07-67.54-11.33"/>
    <line class="cls-20" x1="3.41" y1="69.91" x2="3.41" y2="159.04"/>
    <text class="cls-11" transform="translate(170.27 83.38)"><tspan x="0" y="0">y</tspan></text>
    <line class="cls-21" x1="70.69" y1="69.84" x2="70.69" y2="117.16"/>
    <g>
      <polyline class="cls-25" points="70.69 8.15 70.69 66.66 70.69 69.84"/>
      <path class="cls-37" d="M70.69,9.95l3.6,2.19.08-.12-2.33-5.88c-.45-2.05-.9-4.09-1.35-6.14-.45,2.05-.9,4.09-1.35,6.14l-2.33,5.88.06.12,3.62-2.19Z"/>
    </g>
    <text class="cls-13" transform="translate(78.27 15.3)"><tspan x="0" y="0">Y</tspan></text>
    <text class="cls-13" transform="translate(10.83 117.16)"><tspan x="0" y="0">Z</tspan></text>
    <g>
      <path class="cls-29" d="M81.63,39.51c2.81.92,4.55,2.21,4.55,3.65,0,2.78-6.57,5.04-14.67,5.04-5.14,0-9.66-.91-12.28-2.28"/>
      <path class="cls-6" d="M83,39.98l2.33-2.44-.08-.08-4.99.82c-1.68,0-3.35,0-5.03,0,1.52.7,3.05,1.4,4.57,2.11l4.19,2.83.11-.03-1.09-3.21Z"/>
    </g>
    <text class="cls-1" transform="translate(51.42 39.94)"><tspan x="0" y="0">Ω</tspan></text>
    <g>
      <polyline class="cls-25" points="106.83 30.87 106.83 96.76 106.83 128.28"/>
      <path class="cls-37" d="M106.83,32.67l3.6,2.19.08-.12-2.33-5.88c-.45-2.05-.9-4.09-1.35-6.14-.45,2.05-.9,4.09-1.35,6.14l-2.33,5.88.06.12,3.62-2.19Z"/>
    </g>
    <text class="cls-13" transform="translate(113.47 26.29)"><tspan x="0" y="0">y</tspan></text>
    <text class="cls-4" transform="translate(121.46 30.96) scale(.58)"><tspan x="0" y="0">0</tspan></text>
    <line class="cls-21" x1="23.81" y1="124.89" x2="70.69" y2="117.16"/>
    <g>
      <line class="cls-25" x1="8.04" y1="127.51" x2="49.66" y2="120.65"/>
      <path class="cls-37" d="M9.81,127.22l1.58-3.91-.13-.06-5.42,3.26c-1.95.78-3.89,1.55-5.84,2.33,2.09.11,4.19.22,6.28.33l6.18,1.35.11-.08-2.75-3.22Z"/>
    </g>
    <text class="cls-13" transform="translate(39.66 140.64)"><tspan x="0" y="0">z</tspan></text>
    <text class="cls-4" transform="translate(46.67 145.3) scale(.58)"><tspan x="0" y="0">0</tspan></text>
    <g>
      <path class="cls-26" d="M168.79,96.98c1.31.8,2.83,1.99,4.07,3.68,1.84,2.51,2.13,4.87,2.34,6.55.22,1.77.12,3.35-.1,4.66"/>
      <polygon class="cls-6" points="171.03 101.61 171.64 101.17 168.74 97.21 173.51 98.38 173.69 97.65 166.91 95.99 171.03 101.61"/>
      <polygon class="cls-6" points="173.06 107.14 173.8 106.97 174.89 111.77 177.13 107.4 177.8 107.74 174.61 113.94 173.06 107.14"/>
    </g>
    <text class="cls-8" transform="translate(179.14 102.51)"><tspan x="0" y="0">θ</tspan></text>
    <text class="cls-2" transform="translate(187.98 107.17) scale(.58)"><tspan x="0" y="0">0</tspan></text>
    <text class="cls-11" transform="translate(80.49 96.11)"><tspan x="0" y="0">z</tspan></text>
    <g>
      <polygon class="cls-17" points="134.06 109.56 72.14 142.52 72.14 149.7 306.32 237.36 355.64 159.96 352.58 154.74 134.06 109.56"/>
      <polyline class="cls-17" points="72.82 142.99 303.26 232.2 305.9 236.7"/>
      <line class="cls-17" x1="303.56" y1="231.92" x2="352.22" y2="155.32"/>
      <polyline class="cls-23" points="73.36 149.43 134.04 117.39 354.38 159.82"/>
      <line class="cls-23" x1="134.11" y1="110.64" x2="134.11" y2="113.34"/>
      <line class="cls-23" x1="134.22" y1="117.14" x2="134.11" y2="117.03"/>
      <line class="cls-17" x1="78.27" y1="145.1" x2="95.76" y2="151.87"/>
    </g>
    <text class="cls-35" transform="translate(52.8 109.56)"><tspan x="0" y="0">O</tspan></text>
    <text class="cls-35" transform="translate(64.35 114.88) scale(.58)"><tspan x="0" y="0">I</tspan></text>
    <text class="cls-35" transform="translate(102.71 142.99)"><tspan x="0" y="0">O</tspan></text>
    <text class="cls-35" transform="translate(114.27 148.32) scale(.58)"><tspan x="0" y="0">R</tspan></text>
    <text class="cls-11" transform="translate(277.91 191.67) scale(.58)"><tspan x="0" y="0">ξ</tspan></text>
    <text class="cls-11" transform="translate(280.29 160.24) scale(.58)"><tspan x="0" y="0">η</tspan></text>
    <text class="cls-11" transform="translate(244.84 158.84) scale(.58)"><tspan x="0" y="0">ζ</tspan></text>
    <g>
      <line class="cls-30" x1="73.36" y1="178.85" x2="303.92" y2="265.58"/>
      <polygon class="cls-6" points="76.67 182.65 77.15 182.08 73.42 178.88 78.34 178.93 78.35 178.18 71.37 178.11 76.67 182.65"/>
      <polygon class="cls-6" points="298.93 266.26 298.94 265.51 303.85 265.56 300.12 262.36 300.61 261.79 305.9 266.33 298.93 266.26"/>
    </g>
    <line class="cls-31" x1="71.49" y1="150.23" x2="71.49" y2="182.12"/>
    <line class="cls-30" x1="305.9" y1="238.41" x2="305.9" y2="269.78"/>
    <rect class="cls-32" x="173.25" y="210.44" width="17.28" height="17.28"/>
    <text class="cls-8" transform="translate(177.51 222.22)"><tspan x="0" y="0">l</tspan></text>
    <text class="cls-8" transform="translate(182.52 228.21) scale(.58)"><tspan x="0" y="0">ξ</tspan></text>
    <g>
      <line class="cls-27" x1="27.84" y1="77.35" x2="70.69" y2="70.28"/>
      <path class="cls-6" d="M28.72,77.2l.79-1.96-.07-.03-2.71,1.63c-.97.39-1.95.78-2.92,1.17,1.05.06,2.09.11,3.14.17l3.09.67.06-.04-1.38-1.61Z"/>
    </g>
    <rect class="cls-32" x="44.19" y="67.76" width="12.78" height="10.93"/>
    <text class="cls-7" transform="translate(45.48 73.23)"><tspan x="0" y="0">r</tspan></text>
    <text class="cls-7" transform="translate(51.7 78.56) scale(.58)"><tspan x="0" y="0">h</tspan></text>
    <g>
      <line class="cls-6" x1="226.18" y1="77.86" x2="235.04" y2="94.39"/>
      <g>
        <line class="cls-18" x1="226.18" y1="77.86" x2="231.96" y2="88.65"/>
        <path class="cls-6" d="M231.28,87.38l1.71-2.91.1.06.58,5.02c.46,1.61.91,3.23,1.37,4.84-1.09-1.27-2.18-2.55-3.27-3.82l-3.87-3.26v-.11s3.38.18,3.38.18Z"/>
      </g>
    </g>
    <g>
      <line class="cls-6" x1="235.04" y1="77.86" x2="243.91" y2="94.39"/>
      <g>
        <line class="cls-18" x1="235.04" y1="77.86" x2="240.82" y2="88.65"/>
        <path class="cls-6" d="M240.15,87.38l1.71-2.91.1.06.58,5.02c.46,1.61.91,3.23,1.37,4.84-1.09-1.27-2.18-2.55-3.27-3.82l-3.87-3.26v-.11s3.38.18,3.38.18Z"/>
      </g>
    </g>
    <g>
      <line class="cls-6" x1="243.91" y1="77.86" x2="252.77" y2="94.39"/>
      <g>
        <line class="cls-18" x1="243.91" y1="77.86" x2="249.69" y2="88.65"/>
        <path class="cls-6" d="M249.01,87.38l1.71-2.91.1.06.58,5.02c.46,1.61.91,3.23,1.37,4.84-1.09-1.27-2.18-2.55-3.27-3.82l-3.87-3.26v-.11s3.38.18,3.38.18Z"/>
      </g>
    </g>
    <text class="cls-10" transform="translate(251.56 73.23)"><tspan x="0" y="0">q</tspan></text>
    <text class="cls-9" transform="translate(265.56 82.55) scale(.58)"><tspan x="0" y="0">T</tspan></text>
    <line class="cls-21" x1="327.76" y1="194.97" x2="70.69" y2="117.16"/>
    <g>
      <line class="cls-15" x1="262.94" y1="175.11" x2="273.36" y2="159.62"/>
      <path class="cls-36" d="M272.36,161.11l-4.21-.19v-.15s5.22-3.57,5.22-3.57c1.52-1.45,3.03-2.9,4.55-4.34-.77,1.95-1.54,3.9-2.3,5.85l-1.34,6.18-.12.07-1.78-3.84Z"/>
    </g>
    <g>
      <line class="cls-15" x1="262.94" y1="175.11" x2="255.74" y2="163.06"/>
      <path class="cls-36" d="M256.66,164.6l-1.97,3.73-.13-.06-1.01-6.24c-.66-1.99-1.33-3.98-1.99-5.96,1.44,1.53,2.87,3.05,4.31,4.58l5.02,3.85v.14s-4.22-.02-4.22-.02Z"/>
    </g>
    <g>
      <line class="cls-15" x1="262.94" y1="175.33" x2="275.73" y2="179.22"/>
      <path class="cls-36" d="M274.01,178.7l-1.05-4.08.14-.04,4.94,3.94c1.83,1.03,3.65,2.05,5.48,3.08-2.09-.17-4.18-.33-6.27-.49l-6.3.52-.1-.09,3.15-2.83Z"/>
    </g>
    <g>
      <line class="cls-15" x1="106.95" y1="128.16" x2="181.17" y2="87.55"/>
      <path class="cls-36" d="M179.6,88.41l-3.65-2.11.07-.13,6.27-.77c2.01-.59,4.02-1.18,6.04-1.76-1.58,1.38-3.16,2.75-4.74,4.13l-4.03,4.87h-.14s.18-4.23.18-4.23Z"/>
    </g>
    <g>
      <line class="cls-15" x1="106.83" y1="128.28" x2="94.09" y2="99.5"/>
      <path class="cls-36" d="M94.81,101.14l-2.41,3.46-.12-.08-.25-6.32c-.42-2.05-.83-4.11-1.25-6.16,1.24,1.69,2.48,3.38,3.72,5.07l4.51,4.43v.14s-4.21-.54-4.21-.54Z"/>
    </g>
    <g>
      <line class="cls-25" x1="63.03" y1="139.95" x2="106.51" y2="128.28"/>
      <path class="cls-37" d="M64.77,139.49l1.18-4.05-.14-.05-5.07,3.78c-1.86.97-3.72,1.93-5.58,2.9,2.09-.1,4.19-.19,6.28-.29l6.28.73.1-.09-3.06-2.93Z"/>
    </g>
    <path class="cls-16" d="M101.75,129.76l93.76-20.2"/>
    <g>
      <line class="cls-20" x1="138.49" y1="108.21" x2="138.49" y2="69.91"/>
      <g>
        <line class="cls-20" x1="138.49" y1="159.04" x2="138.49" y2="156.54"/>
        <line class="cls-22" x1="138.49" y1="151.45" x2="138.49" y2="110.71"/>
        <line class="cls-20" x1="138.49" y1="110.71" x2="138.49" y2="108.21"/>
      </g>
      <g>
        <path class="cls-20" d="M3.41,159.04c0-.72.41-1.43,1.18-2.12"/>
        <path class="cls-19" d="M8.97,154.53c10.39-4.02,34.23-6.83,61.99-6.83,32.97,0,60.43,3.96,66.35,9.21"/>
        <path class="cls-20" d="M137.31,156.92c.77.69,1.18,1.4,1.18,2.12"/>
      </g>
    </g>
    <path class="cls-24" d="M138.49,159.3c0,3.41-9.67,6.45-24.82,8.45"/>
    <path class="cls-20" d="M112.1,168.04c1.49-.23,2.99-.46,4.48-.7"/>
    <text class="cls-14" transform="translate(147.64 164.71)"><tspan class="cls-33" x="0" y="0">X</tspan><tspan class="cls-5" x="11" y="0">/</tspan><tspan class="cls-33" x="16" y="0">y</tspan></text>
    <text class="cls-4" transform="translate(171.63 169.37) scale(.58)"><tspan x="0" y="0">0</tspan></text>
    <text class="cls-12" transform="translate(175.71 164.71)"><tspan class="cls-3" x="0" y="0">/</tspan><tspan class="cls-34" x="5" y="0">x</tspan></text>
    <g>
      <line class="cls-25" x1="153.33" y1="142.08" x2="107.3" y2="128.2"/>
      <path class="cls-37" d="M151.61,141.56l-3.14,2.82.09.11,6.3-.54c2.09.16,4.18.32,6.27.48-1.83-1.02-3.66-2.04-5.49-3.07l-4.95-3.93-.14.02,1.05,4.1Z"/>
    </g>
  </g>
</svg>