<?xml version="1.0" encoding="UTF-8"?>
<svg id="Layer_2" data-name="Layer 2" xmlns="http://www.w3.org/2000/svg" viewBox="0 0 407.52 312.09">
  <defs>
    <style>
      .cls-1, .cls-2, .cls-3, .cls-4 {
        fill: #92278f;
      }

      .cls-1, .cls-5, .cls-6, .cls-7 {
        font-family: TimesNewRomanPS-ItalicMT, 'Times New Roman';
        font-style: italic;
      }

      .cls-1, .cls-5, .cls-3, .cls-7, .cls-8, .cls-4 {
        font-size: 20.69px;
      }

      .cls-9, .cls-10, .cls-11, .cls-12, .cls-13, .cls-14, .cls-15, .cls-16, .cls-17, .cls-18, .cls-19, .cls-20, .cls-21, .cls-22 {
        fill: none;
      }

      .cls-9, .cls-10, .cls-11, .cls-12, .cls-14, .cls-15, .cls-16, .cls-17, .cls-18, .cls-23, .cls-19, .cls-20, .cls-24, .cls-21, .cls-22 {
        stroke-linejoin: round;
      }

      .cls-9, .cls-10, .cls-11, .cls-12, .cls-14, .cls-17, .cls-18, .cls-23, .cls-19, .cls-20, .cls-24, .cls-21 {
        stroke-linecap: round;
      }

      .cls-9, .cls-20 {
        stroke: #ed1c24;
      }

      .cls-10, .cls-13 {
        stroke: #92278f;
      }

      .cls-5, .cls-25 {
        fill: #ed1c24;
      }

      .cls-11 {
        stroke-dasharray: 4.86 4.86 0 0 0 0;
      }

      .cls-11, .cls-14, .cls-17, .cls-23, .cls-24 {
        stroke: #6d6e71;
      }

      .cls-11, .cls-14, .cls-17, .cls-23, .cls-24, .cls-22 {
        stroke-width: 2px;
      }

      .cls-12, .cls-15, .cls-16, .cls-19, .cls-24, .cls-22 {
        stroke-dasharray: 5 5 0 0 0 0;
      }

      .cls-12, .cls-19, .cls-21 {
        stroke: #2e3192;
      }

      .cls-13 {
        stroke-miterlimit: 10;
      }

      .cls-14 {
        stroke-dasharray: 5.06 5.06 0 0 0 0;
      }

      .cls-15, .cls-16, .cls-22 {
        stroke: #fff;
      }

      .cls-16 {
        stroke-width: 1.35px;
      }

      .cls-18 {
        stroke: #000;
      }

      .cls-23, .cls-24 {
        fill: #fff;
      }

      .cls-19, .cls-20 {
        stroke-width: .5px;
      }

      .cls-26 {
        font-size: 16.09px;
      }

      .cls-26, .cls-27, .cls-7, .cls-8 {
        fill: #2e3192;
      }

      .cls-26, .cls-8, .cls-4, .cls-28 {
        font-family: TimesNewRomanPSMT, 'Times New Roman';
      }
    </style>
  </defs>
  <g id="Layer_1-2" data-name="Layer 1">
    <path class="cls-19" d="M99.34,149.16l92.66-20.09"/>
    <ellipse class="cls-23" cx="68.54" cy="80.37" rx="67.54" ry="13.03"/>
    <path class="cls-24" d="M136.08,183.11c0,4.06-9.65,7.69-24.76,10.08"/>
    <path class="cls-17" d="M109.69,193.14c-11.39,1.69-25.66,2.7-41.15,2.7-37.3,0-67.54-5.83-67.54-13.03"/>
    <g>
      <line class="cls-17" x1="136.08" y1="124.39" x2="136.08" y2="80.37"/>
      <g>
        <line class="cls-17" x1="136.08" y1="182.81" x2="136.08" y2="180.31"/>
        <line class="cls-11" x1="136.08" y1="175.46" x2="136.08" y2="126.89"/>
        <line class="cls-17" x1="136.08" y1="126.89" x2="136.08" y2="124.39"/>
      </g>
      <g>
        <path class="cls-17" d="M1,182.81c0-.76.34-1.51.99-2.23"/>
        <path class="cls-14" d="M6.17,177.8c10.18-4.71,34.27-8.02,62.36-8.02,33.34,0,61.03,4.66,66.54,10.78"/>
        <path class="cls-17" d="M135.09,180.58c.65.73.99,1.47.99,2.23"/>
      </g>
    </g>
    <line class="cls-17" x1="1" y1="80.37" x2="1" y2="182.81"/>
    <text class="cls-5" transform="translate(158.02 99.44) scale(.87 1)"><tspan x="0" y="0">y</tspan></text>
    <line class="cls-12" x1="68.28" y1="80.28" x2="68.28" y2="134.68"/>
    <g>
      <polyline class="cls-21" points="68.28 8.15 68.28 76.63 68.28 80.28"/>
      <path class="cls-27" d="M68.28,9.95l3.6,2.19.08-.12-2.33-5.88c-.45-2.05-.9-4.09-1.35-6.14-.45,2.05-.9,4.09-1.35,6.14l-2.33,5.88.06.12,3.62-2.19Z"/>
    </g>
    <text class="cls-7" transform="translate(75.86 17.59) scale(.87 1)"><tspan x="0" y="0">Y</tspan></text>
    <text class="cls-7" transform="translate(7.13 133.69) scale(.87 1)"><tspan x="0" y="0">Z</tspan></text>
    <line class="cls-12" x1="343.5" y1="246.37" x2="68.28" y2="134.68"/>
    <g>
      <line class="cls-21" x1="150.08" y1="167.6" x2="103.43" y2="148.67"/>
      <path class="cls-27" d="M148.41,166.93l-3.39,2.51.08.12,6.32.05c2.07.35,4.13.71,6.2,1.06-1.73-1.19-3.45-2.37-5.18-3.56l-4.57-4.37h-.14s.67,4.19.67,4.19Z"/>
    </g>
    <g>
      <path class="cls-13" d="M79.19,45.41c2.82,1.06,4.59,2.55,4.59,4.21,0,3.2-6.57,5.79-14.67,5.79-5.14,0-9.66-1.04-12.28-2.62"/>
      <path class="cls-2" d="M80.53,45.94l2.4-2.37-.08-.09-5.01.67c-1.68-.05-3.35-.1-5.03-.14,1.5.75,3,1.49,4.5,2.24l4.11,2.95.11-.02-1-3.24Z"/>
    </g>
    <text class="cls-4" transform="translate(49 45.91) scale(.87 1)"><tspan x="0" y="0">Ω</tspan></text>
    <g>
      <polyline class="cls-21" points="102.52 34.56 102.52 111.51 102.52 147.75"/>
      <path class="cls-27" d="M102.52,36.36l3.6,2.19.08-.12-2.33-5.88c-.45-2.05-.9-4.09-1.35-6.14-.45,2.05-.9,4.09-1.35,6.14l-2.33,5.88.06.12,3.62-2.19Z"/>
    </g>
    <text class="cls-7" transform="translate(111.06 30.23) scale(.87 1)"><tspan x="0" y="0">y</tspan></text>
    <text class="cls-8" transform="translate(119.05 37.12) scale(.51 .58)"><tspan x="0" y="0">0</tspan></text>
    <g>
      <line class="cls-21" x1="56.71" y1="157.91" x2="102.37" y2="148.52"/>
      <path class="cls-27" d="M58.47,157.55l1.42-3.97-.14-.06-5.28,3.47c-1.91.85-3.83,1.71-5.74,2.56,2.1.03,4.19.06,6.29.09l6.22,1.1.11-.09-2.88-3.11Z"/>
    </g>
    <line class="cls-18" x1="131.36" y1="127.17" x2="131.88" y2="129.75"/>
    <line class="cls-18" x1="140.27" y1="131.59" x2="131.88" y2="129.75"/>
    <line class="cls-18" x1="131.88" y1="129.75" x2="140.27" y2="131.59"/>
    <line class="cls-18" x1="131.47" y1="127.7" x2="131.36" y2="127.17"/>
    <line class="cls-18" x1="131.88" y1="129.75" x2="131.47" y2="127.7"/>
    <line class="cls-18" x1="127.84" y1="135.02" x2="131.88" y2="129.75"/>
    <line class="cls-18" x1="139.78" y1="129.2" x2="131.36" y2="127.17"/>
    <line class="cls-18" x1="131.36" y1="127.17" x2="139.78" y2="129.2"/>
    <line class="cls-18" x1="131.36" y1="127.17" x2="127.42" y2="127.7"/>
    <line class="cls-18" x1="127.42" y1="127.7" x2="131.36" y2="127.17"/>
    <line class="cls-18" x1="127.84" y1="135.02" x2="125.44" y2="137.92"/>
    <line class="cls-18" x1="125.44" y1="137.92" x2="123.43" y2="140.34"/>
    <line class="cls-18" x1="123.43" y1="140.34" x2="125.44" y2="137.92"/>
    <line class="cls-18" x1="127.42" y1="127.7" x2="126.38" y2="127.83"/>
    <line class="cls-18" x1="126.38" y1="127.83" x2="127.42" y2="127.7"/>
    <line class="cls-18" x1="123.43" y1="140.34" x2="118.95" y2="145.34"/>
    <line class="cls-18" x1="123.51" y1="128.4" x2="126.38" y2="127.83"/>
    <line class="cls-18" x1="126.38" y1="127.83" x2="123.51" y2="128.4"/>
    <line class="cls-18" x1="118.95" y1="145.34" x2="118.87" y2="145.42"/>
    <line class="cls-18" x1="118.87" y1="145.42" x2="118.95" y2="145.34"/>
    <line class="cls-18" x1="118.87" y1="145.42" x2="114.35" y2="150.06"/>
    <line class="cls-18" x1="123.51" y1="128.4" x2="121.11" y2="128.87"/>
    <line class="cls-18" x1="121.11" y1="128.87" x2="123.51" y2="128.4"/>
    <line class="cls-18" x1="148.65" y1="133.43" x2="140.27" y2="131.59"/>
    <line class="cls-18" x1="140.27" y1="131.59" x2="148.65" y2="133.43"/>
    <line class="cls-18" x1="119.64" y1="129.25" x2="121.11" y2="128.87"/>
    <line class="cls-18" x1="121.11" y1="128.87" x2="119.64" y2="129.25"/>
    <line class="cls-18" x1="139.78" y1="129.2" x2="148.2" y2="131.24"/>
    <line class="cls-18" x1="148.2" y1="131.24" x2="139.78" y2="129.2"/>
    <line class="cls-18" x1="112.13" y1="152.14" x2="114.35" y2="150.06"/>
    <line class="cls-18" x1="114.35" y1="150.06" x2="112.13" y2="152.14"/>
    <line class="cls-18" x1="115.89" y1="130.24" x2="119.64" y2="129.25"/>
    <line class="cls-18" x1="119.64" y1="129.25" x2="115.89" y2="130.24"/>
    <line class="cls-18" x1="109.83" y1="154.3" x2="112.13" y2="152.14"/>
    <line class="cls-18" x1="112.13" y1="152.14" x2="109.83" y2="154.3"/>
    <line class="cls-18" x1="109.83" y1="154.3" x2="105.27" y2="158.2"/>
    <line class="cls-18" x1="115.89" y1="130.24" x2="115.8" y2="130.27"/>
    <line class="cls-18" x1="115.8" y1="130.27" x2="115.89" y2="130.24"/>
    <line class="cls-18" x1="115.8" y1="130.27" x2="110.69" y2="131.96"/>
    <line class="cls-18" x1="110.69" y1="131.96" x2="115.8" y2="130.27"/>
    <line class="cls-18" x1="105.24" y1="158.23" x2="105.27" y2="158.2"/>
    <line class="cls-18" x1="105.27" y1="158.2" x2="105.24" y2="158.23"/>
    <line class="cls-18" x1="105.24" y1="158.23" x2="100.44" y2="161.94"/>
    <line class="cls-18" x1="148.65" y1="133.43" x2="157.03" y2="135.27"/>
    <line class="cls-18" x1="157.03" y1="135.27" x2="148.65" y2="133.43"/>
    <line class="cls-18" x1="108.25" y1="132.94" x2="110.69" y2="131.96"/>
    <line class="cls-18" x1="110.69" y1="131.96" x2="108.25" y2="132.94"/>
    <line class="cls-18" x1="156.61" y1="133.27" x2="148.2" y2="131.24"/>
    <line class="cls-18" x1="148.2" y1="131.24" x2="156.61" y2="133.27"/>
    <line class="cls-18" x1="100.44" y1="161.94" x2="98.25" y2="163.46"/>
    <line class="cls-18" x1="105.71" y1="133.96" x2="108.25" y2="132.94"/>
    <line class="cls-18" x1="108.25" y1="132.94" x2="105.71" y2="133.96"/>
    <line class="cls-18" x1="98.25" y1="163.46" x2="95.76" y2="165.18"/>
    <line class="cls-18" x1="95.76" y1="165.18" x2="98.25" y2="163.46"/>
    <line class="cls-18" x1="105.71" y1="133.96" x2="100.83" y2="136.26"/>
    <line class="cls-18" x1="100.83" y1="136.26" x2="105.71" y2="133.96"/>
    <line class="cls-18" x1="91.09" y1="168.06" x2="95.76" y2="165.18"/>
    <line class="cls-18" x1="100.79" y1="136.28" x2="100.83" y2="136.26"/>
    <line class="cls-18" x1="100.83" y1="136.26" x2="100.83" y2="136.26"/>
    <line class="cls-18" x1="100.83" y1="136.26" x2="100.83" y2="136.26"/>
    <line class="cls-18" x1="100.83" y1="136.26" x2="100.79" y2="136.28"/>
    <line class="cls-18" x1="100.79" y1="136.28" x2="95.79" y2="139.01"/>
    <line class="cls-18" x1="95.79" y1="139.01" x2="100.79" y2="136.28"/>
    <line class="cls-18" x1="91.01" y1="168.11" x2="91.09" y2="168.06"/>
    <line class="cls-18" x1="91.09" y1="168.06" x2="91.01" y2="168.11"/>
    <line class="cls-18" x1="86.07" y1="170.79" x2="91.01" y2="168.11"/>
    <line class="cls-18" x1="164.62" y1="136.93" x2="157.03" y2="135.27"/>
    <line class="cls-18" x1="157.03" y1="135.27" x2="164.62" y2="136.93"/>
    <line class="cls-18" x1="156.63" y1="133.27" x2="156.61" y2="133.27"/>
    <line class="cls-18" x1="156.61" y1="133.27" x2="156.63" y2="133.27"/>
    <line class="cls-18" x1="165.02" y1="135.2" x2="156.63" y2="133.27"/>
    <line class="cls-18" x1="156.63" y1="133.27" x2="165.02" y2="135.2"/>
    <line class="cls-18" x1="95.79" y1="139.01" x2="93.57" y2="140.39"/>
    <line class="cls-18" x1="93.57" y1="140.39" x2="95.79" y2="139.01"/>
    <line class="cls-18" x1="86.07" y1="170.79" x2="83.77" y2="171.87"/>
    <line class="cls-18" x1="83.77" y1="171.87" x2="86.07" y2="170.79"/>
    <line class="cls-18" x1="93.57" y1="140.39" x2="91.05" y2="141.95"/>
    <line class="cls-18" x1="91.05" y1="141.95" x2="93.57" y2="140.39"/>
    <line class="cls-18" x1="81.22" y1="173.07" x2="83.77" y2="171.87"/>
    <line class="cls-18" x1="86.45" y1="145.17" x2="91.05" y2="141.95"/>
    <line class="cls-18" x1="91.05" y1="141.95" x2="86.45" y2="145.17"/>
    <line class="cls-18" x1="81.22" y1="173.07" x2="80.06" y2="173.53"/>
    <line class="cls-18" x1="80.06" y1="173.53" x2="81.22" y2="173.07"/>
    <line class="cls-18" x1="80.06" y1="173.53" x2="76.31" y2="175.03"/>
    <line class="cls-18" x1="76.31" y1="175.03" x2="76.86" y2="174.81"/>
    <line class="cls-18" x1="165.41" y1="137.1" x2="164.62" y2="136.93"/>
    <line class="cls-18" x1="164.62" y1="136.93" x2="165.41" y2="137.1"/>
    <line class="cls-18" x1="165.41" y1="137.1" x2="182.14" y2="140.63"/>
    <line class="cls-18" x1="182.14" y1="140.63" x2="165.41" y2="137.1"/>
    <line class="cls-18" x1="165.02" y1="135.2" x2="173.42" y2="137.13"/>
    <line class="cls-18" x1="173.42" y1="137.13" x2="165.02" y2="135.2"/>
    <line class="cls-18" x1="86.45" y1="145.17" x2="86.38" y2="145.22"/>
    <line class="cls-18" x1="86.38" y1="145.22" x2="86.45" y2="145.17"/>
    <line class="cls-18" x1="86.38" y1="145.22" x2="81.63" y2="148.9"/>
    <line class="cls-18" x1="81.63" y1="148.9" x2="86.38" y2="145.22"/>
    <line class="cls-18" x1="76.31" y1="175.03" x2="72.65" y2="156.97"/>
    <line class="cls-18" x1="72.65" y1="156.97" x2="76.31" y2="175.03"/>
    <line class="cls-18" x1="89.62" y1="181.7" x2="76.31" y2="175.03"/>
    <line class="cls-18" x1="76.31" y1="175.03" x2="89.62" y2="181.7"/>
    <line class="cls-18" x1="81.63" y1="148.9" x2="79.49" y2="150.74"/>
    <line class="cls-18" x1="79.49" y1="150.74" x2="81.63" y2="148.9"/>
    <line class="cls-18" x1="77.11" y1="152.78" x2="79.49" y2="150.74"/>
    <line class="cls-18" x1="79.49" y1="150.74" x2="77.11" y2="152.78"/>
    <line class="cls-18" x1="77.11" y1="152.78" x2="72.65" y2="156.97"/>
    <line class="cls-18" x1="72.65" y1="156.97" x2="77.11" y2="152.78"/>
    <line class="cls-18" x1="173.42" y1="137.13" x2="181.83" y2="139.05"/>
    <line class="cls-18" x1="181.83" y1="139.05" x2="173.42" y2="137.13"/>
    <line class="cls-18" x1="72.65" y1="156.97" x2="76.44" y2="159.55"/>
    <line class="cls-18" x1="76.44" y1="159.55" x2="72.65" y2="156.97"/>
    <line class="cls-18" x1="86.53" y1="166.35" x2="76.44" y2="159.55"/>
    <line class="cls-18" x1="76.44" y1="159.55" x2="86.53" y2="166.35"/>
    <line class="cls-18" x1="182.14" y1="140.63" x2="196.61" y2="143.68"/>
    <line class="cls-18" x1="196.61" y1="143.68" x2="182.14" y2="140.63"/>
    <line class="cls-18" x1="181.83" y1="139.05" x2="182.1" y2="139.12"/>
    <line class="cls-18" x1="182.1" y1="139.12" x2="181.83" y2="139.05"/>
    <line class="cls-18" x1="182.1" y1="139.12" x2="190.2" y2="140.88"/>
    <line class="cls-18" x1="190.2" y1="140.88" x2="182.1" y2="139.12"/>
    <line class="cls-18" x1="89.62" y1="181.7" x2="89.64" y2="181.71"/>
    <line class="cls-18" x1="89.64" y1="181.71" x2="89.62" y2="181.7"/>
    <line class="cls-18" x1="102.03" y1="188.2" x2="89.64" y2="181.71"/>
    <line class="cls-18" x1="89.64" y1="181.71" x2="102.03" y2="188.2"/>
    <line class="cls-18" x1="190.2" y1="140.88" x2="198.58" y2="142.71"/>
    <line class="cls-18" x1="198.58" y1="142.71" x2="190.2" y2="140.88"/>
    <line class="cls-18" x1="86.53" y1="166.35" x2="96.13" y2="172.82"/>
    <line class="cls-18" x1="198.88" y1="144.14" x2="196.61" y2="143.68"/>
    <line class="cls-18" x1="196.61" y1="143.68" x2="198.88" y2="144.14"/>
    <line class="cls-18" x1="209.48" y1="146.31" x2="198.88" y2="144.14"/>
    <line class="cls-18" x1="198.88" y1="144.14" x2="209.48" y2="146.31"/>
    <line class="cls-18" x1="206.96" y1="144.53" x2="198.58" y2="142.71"/>
    <line class="cls-18" x1="198.58" y1="142.71" x2="206.96" y2="144.53"/>
    <line class="cls-18" x1="103.04" y1="188.75" x2="102.03" y2="188.2"/>
    <line class="cls-18" x1="102.03" y1="188.2" x2="103.04" y2="188.75"/>
    <line class="cls-18" x1="114.67" y1="195.08" x2="103.04" y2="188.75"/>
    <line class="cls-18" x1="103.04" y1="188.75" x2="114.67" y2="195.08"/>
    <line class="cls-18" x1="96.13" y1="172.82" x2="100.38" y2="175.64"/>
    <line class="cls-18" x1="100.38" y1="175.64" x2="96.13" y2="172.82"/>
    <line class="cls-18" x1="206.96" y1="144.53" x2="207.79" y2="144.71"/>
    <line class="cls-18" x1="207.79" y1="144.71" x2="206.96" y2="144.53"/>
    <line class="cls-18" x1="207.79" y1="144.71" x2="210.71" y2="145.33"/>
    <line class="cls-18" x1="210.71" y1="145.33" x2="207.79" y2="144.71"/>
    <line class="cls-18" x1="215.58" y1="147.52" x2="209.48" y2="146.31"/>
    <line class="cls-18" x1="209.48" y1="146.31" x2="215.58" y2="147.52"/>
    <line class="cls-18" x1="116.92" y1="186.62" x2="100.38" y2="175.64"/>
    <line class="cls-18" x1="100.38" y1="175.64" x2="116.92" y2="186.62"/>
    <line class="cls-18" x1="210.71" y1="145.33" x2="215.32" y2="146.27"/>
    <line class="cls-18" x1="215.32" y1="146.27" x2="210.71" y2="145.33"/>
    <line class="cls-18" x1="215.58" y1="147.52" x2="232.26" y2="150.82"/>
    <line class="cls-18" x1="232.26" y1="150.82" x2="215.58" y2="147.52"/>
    <line class="cls-18" x1="215.32" y1="146.27" x2="232.04" y2="149.7"/>
    <line class="cls-18" x1="232.04" y1="149.7" x2="215.32" y2="146.27"/>
    <line class="cls-18" x1="116.5" y1="196.11" x2="114.67" y2="195.08"/>
    <line class="cls-18" x1="114.67" y1="195.08" x2="116.5" y2="196.11"/>
    <line class="cls-18" x1="127.54" y1="202.33" x2="116.5" y2="196.11"/>
    <line class="cls-18" x1="116.5" y1="196.11" x2="127.54" y2="202.33"/>
    <line class="cls-18" x1="116.92" y1="186.62" x2="128.02" y2="193.9"/>
    <line class="cls-18" x1="128.02" y1="193.9" x2="116.92" y2="186.62"/>
    <line class="cls-18" x1="238.11" y1="151.97" x2="232.26" y2="150.82"/>
    <line class="cls-18" x1="232.26" y1="150.82" x2="238.11" y2="151.97"/>
    <line class="cls-18" x1="232.04" y1="149.7" x2="236.74" y2="150.66"/>
    <line class="cls-18" x1="236.74" y1="150.66" x2="232.04" y2="149.7"/>
    <line class="cls-18" x1="236.74" y1="150.66" x2="248.72" y2="152.97"/>
    <line class="cls-18" x1="248.72" y1="152.97" x2="236.74" y2="150.66"/>
    <line class="cls-18" x1="130.02" y1="203.77" x2="127.54" y2="202.33"/>
    <line class="cls-18" x1="127.54" y1="202.33" x2="130.02" y2="203.77"/>
    <line class="cls-18" x1="265.58" y1="157.14" x2="238.11" y2="151.97"/>
    <line class="cls-18" x1="238.11" y1="151.97" x2="265.58" y2="157.14"/>
    <line class="cls-18" x1="130.02" y1="203.77" x2="140.64" y2="209.93"/>
    <line class="cls-18" x1="140.64" y1="209.93" x2="130.02" y2="203.77"/>
    <line class="cls-18" x1="128.02" y1="193.9" x2="139.09" y2="201.17"/>
    <line class="cls-18" x1="139.09" y1="201.17" x2="128.02" y2="193.9"/>
    <line class="cls-18" x1="248.72" y1="152.97" x2="262.8" y2="155.69"/>
    <line class="cls-18" x1="262.8" y1="155.69" x2="248.72" y2="152.97"/>
    <line class="cls-18" x1="140.64" y1="209.93" x2="143.6" y2="211.69"/>
    <line class="cls-18" x1="143.6" y1="211.69" x2="140.64" y2="209.93"/>
    <line class="cls-18" x1="153.97" y1="217.87" x2="143.6" y2="211.69"/>
    <line class="cls-18" x1="143.6" y1="211.69" x2="153.97" y2="217.87"/>
    <line class="cls-18" x1="155.63" y1="211.98" x2="139.09" y2="201.17"/>
    <line class="cls-18" x1="139.09" y1="201.17" x2="155.63" y2="211.98"/>
    <line class="cls-18" x1="262.8" y1="155.69" x2="265.38" y2="156.16"/>
    <line class="cls-18" x1="265.38" y1="156.16" x2="262.8" y2="155.69"/>
    <line class="cls-18" x1="265.58" y1="157.14" x2="265.58" y2="157.14"/>
    <line class="cls-18" x1="265.58" y1="157.14" x2="265.58" y2="157.14"/>
    <line class="cls-18" x1="266.29" y1="157.27" x2="265.58" y2="157.14"/>
    <line class="cls-18" x1="265.58" y1="157.14" x2="266.29" y2="157.27"/>
    <line class="cls-18" x1="265.38" y1="156.16" x2="265.38" y2="156.16"/>
    <line class="cls-18" x1="265.38" y1="156.16" x2="265.38" y2="156.16"/>
    <line class="cls-18" x1="265.38" y1="156.16" x2="282.01" y2="159.18"/>
    <line class="cls-18" x1="282.01" y1="159.18" x2="265.38" y2="156.16"/>
    <line class="cls-18" x1="286.59" y1="160.9" x2="266.29" y2="157.27"/>
    <line class="cls-18" x1="286.45" y1="160.88" x2="286.59" y2="160.9"/>
    <line class="cls-18" x1="266.29" y1="157.27" x2="286.45" y2="160.88"/>
    <path class="cls-22" d="M130.53,130.85c-14.16,19.33-31.35,35.82-52.98,44.21"/>
    <path class="cls-18" d="M157.23,219.86l-3.26-1.99M153.97,217.87l3.26,1.99M158.62,220.71l-1.4-.85M157.23,219.86l1.4.85M167.53,226.14l-8.9-5.43M158.62,220.71l8.9,5.43M155.63,211.98l7.4,4.83M163.03,216.81l-7.4-4.83M282.01,159.18l7.33,1.33M289.35,160.51l-7.33-1.33M286.59,160.9l12.21,2.07M298.8,162.97l-12.21-2.07"/>
    <path class="cls-18" d="M167.68,219.86l-4.65-3.04M163.03,216.81l4.65,3.04M289.35,160.51l2.87.49M292.22,160.99l-2.87-.49M167.53,226.14l3.37,2.1M170.9,228.24l-3.37-2.1M298.62,162.08l-6.4-1.09M292.22,160.99l6.4,1.09M170.9,228.24l7.47,4.65M178.37,232.89l-7.47-4.65M183.24,230.09l-15.56-10.23M167.68,219.86l15.56,10.23M298.8,162.97l1.06.18M299.86,163.15l-1.06-.18M314.27,164.73l-15.65-2.66M298.62,162.08l15.65,2.66M299.86,163.15l11.89,2.02M311.74,165.17l-11.89-2.02M178.37,232.89l6.25,3.97M184.61,236.86l-6.25-3.97M331.93,168.37l-20.19-3.21M311.74,165.17l20.19,3.21M184.62,236.86h0M184.61,236.86h0M184.62,236.86l11.06,7.02M195.67,243.88l-11.06-7.02M331.75,167.5l-17.49-2.77M314.27,164.73l17.49,2.77M183.24,230.09h0M183.24,230.09h0M183.24,230.09l17.52,11.52M200.76,241.61l-17.52-11.52M195.67,243.88l16.48,10.7M212.15,254.59l-16.48-10.7M331.93,168.37l4.66.74M336.6,169.12l-4.66-.74M338.97,168.64l-7.22-1.14M331.75,167.5l7.22,1.14M336.6,169.12l24.56,3.62M361.15,172.73l-24.56-3.62M210.89,248.36l-10.12-6.75M200.76,241.61l10.12,6.75M363.45,172.22l-24.47-3.58M338.97,168.64l24.47,3.58M213.31,255.34l-1.16-.76M212.15,254.59l1.16.76M213.31,255.34l17.96,11.9M231.27,267.24l-17.96-11.9M210.89,248.36l1.48.99M212.37,249.34l-1.48-.99M212.37,249.34l16.13,10.76M228.5,260.1l-16.13-10.76M361.15,172.73l3.8.52M364.96,173.25l-3.8-.52M363.45,172.22l1.34.18M364.79,172.4l-1.34-.18M385.42,176.02l-20.47-2.77M364.96,173.25l20.47,2.77M387.67,175.47l-22.88-3.07M364.79,172.4l22.88,3.07M234.62,269.49l-3.35-2.24M231.27,267.24l3.35,2.24M228.5,260.1l10.1,6.86M238.6,266.96l-10.1-6.86M239.83,273.02l-5.21-3.53M234.62,269.49l5.21,3.53M239.83,273.02l14.95,10.14M254.78,283.15l-14.95-10.14M238.6,266.96l12.83,8.71M251.43,275.66l-12.83-8.71M397.87,177.58l-12.45-1.57M396.29,177.38l1.59.2M385.42,176.02l10.86,1.37M397.7,176.72l-10.03-1.25M387.67,175.47l10.03,1.25M397.87,177.58l-.17-.86M391.53,186.34l6.35-8.76M397.7,176.72l.17.86M397.87,177.58l-6.35,8.76M391.19,184.4l6.51-7.68M397.7,176.72l-6.51,7.68M251.43,275.66l14.97,10.35M266.4,286.01l-14.97-10.35M254.78,283.15l12.85,8.88M267.62,292.03l-12.85-8.88M391.53,186.34l-6.33,8.74M385.19,195.09l6.33-8.74M391.19,184.4l-6.53,7.69M384.66,192.09l6.53-7.69M385.19,195.09l-6.32,8.72M378.87,203.81l6.32-8.72M384.66,192.09l-6.54,7.7M378.12,199.79l6.54-7.7M372.56,212.51l6.31-8.7M378.87,203.81l-6.31,8.7M378.12,199.79l-6.55,7.72M371.57,207.51l6.55-7.72M372.56,212.51l-2.17,3M370.39,215.51l2.17-3M370.39,215.51l-4.19,5.56M366.2,221.07l4.19-5.56M371.57,207.51l-1.74,2.04M369.84,209.55l1.74-2.04M369.84,209.55l-4.75,5.83M365.09,215.38l4.75-5.83M366.2,221.07l-6.39,8.48M359.81,229.56l6.39-8.48M267.62,292.03l7.48,5.17M275.1,297.2l-7.48-5.17M358.62,223.33l6.47-7.94M365.09,215.38l-6.47,7.94M359.81,229.56l-6.38,8.47M353.43,238.02l6.38-8.47M266.4,286.01l6.78,4.68M273.18,290.69l-6.78-4.68M352.13,231.28l6.48-7.96M358.62,223.33l-6.48,7.96M353.43,238.02l-6.35,8.43M347.08,246.45l6.35-8.43M345.64,239.26l6.49-7.97M352.13,231.28l-6.49,7.97M347.08,246.45l-.02.02M347.06,246.47l.02-.02M347.06,246.47l-4.36,5.79M342.7,252.26l4.36-5.79M295.53,311.59l-20.43-14.39M275.1,297.2l20.43,14.39M342.7,252.26l-2.02,2.58M340.68,254.84l2.02-2.58M345.63,239.27h.01M345.64,239.26h-.01M342.18,243.51l3.45-4.24M345.63,239.27l-3.45,4.24M294.31,305.57l-21.13-14.88M273.18,290.69l21.13,14.88M340.68,254.84l-6.45,8.23M334.23,263.07l6.45-8.23M339.18,247.33l3-3.83M342.18,243.51l-3,3.83M339.18,247.33l-6.41,8.2M332.77,255.53l6.41-8.2M327.79,271.28l6.44-8.21M334.23,263.07l-6.44,8.21M332.77,255.53l-6.43,8.21M326.34,263.74l6.43-8.21M321.37,279.47l6.42-8.19M327.79,271.28l-6.42,8.19M326.34,263.74l-6.44,8.23M319.9,271.97l6.44-8.23M314.91,287.7l6.46-8.24M321.37,279.47l-6.46,8.24M319.9,271.97l-5.27,6.73M314.63,278.7l5.27-6.73M308.47,295.64l6.44-7.94M314.91,287.7l-6.44,7.94M314.63,278.7l-1.17,1.54M313.47,280.25l1.17-1.54M313.47,280.25l-6.37,8.43M307.1,288.67l6.37-8.43M308.47,295.64l-6.48,7.98M302,303.63l6.48-7.98M307.1,288.67l-6.38,8.44M300.71,297.11l6.38-8.44M302,303.63l-6.46,7.97M295.53,311.59l6.46-7.97M300.71,297.11l-6.4,8.46M294.31,305.57l6.4-8.46M295.53,311.59l-1.22-6.02M294.31,305.57l1.22,6.02"/>
    <line class="cls-12" x1="21.4" y1="143.56" x2="68.28" y2="134.68"/>
    <g>
      <line class="cls-21" x1="12.47" y1="145.19" x2="54.12" y2="137.3"/>
      <path class="cls-27" d="M14.23,144.86l1.48-3.95-.14-.06-5.34,3.39c-1.93.82-3.85,1.65-5.78,2.47,2.09.06,4.19.12,6.28.18l6.21,1.2.11-.08-2.83-3.15Z"/>
    </g>
    <text class="cls-7" transform="translate(38.93 161.94) scale(.87 1)"><tspan x="0" y="0">z</tspan></text>
    <text class="cls-26" transform="translate(45.94 167.3) scale(.51 .58)"><tspan x="0" y="0">0</tspan></text>
    <g>
      <line class="cls-9" x1="102.58" y1="148.44" x2="89.46" y2="114.41"/>
      <path class="cls-25" d="M90.1,116.08l-2.57,3.34-.12-.09.06-6.32c-.32-2.07-.63-4.14-.95-6.22,1.16,1.75,2.31,3.5,3.47,5.24l4.29,4.64v.14s-4.18-.74-4.18-.74Z"/>
    </g>
    <g>
      <path class="cls-10" d="M159.1,114.75c1.9,1,3.94,2.32,5.69,4.05,3.19,3.15,3.78,6.04,4.21,8.11.25,1.21.33,2.34.29,3.39"/>
      <path class="cls-2" d="M160.04,115.28l2.09-1.42-.05-.08-3.79-.18c-1.23-.26-2.46-.52-3.69-.79,1.01.75,2.01,1.51,3.02,2.26l2.63,2.73h.08s-.3-2.53-.3-2.53Z"/>
      <path class="cls-2" d="M169.33,129.22l2.36-.92.04.08-1.99,3.23c-.48,1.16-.96,2.33-1.44,3.49-.05-1.26-.11-2.51-.16-3.77l-.77-3.71.05-.07,1.91,1.67Z"/>
    </g>
    <text class="cls-1" transform="translate(171.83 120.05) scale(.87 1)"><tspan x="0" y="0">θ</tspan></text>
    <text class="cls-4" transform="translate(180.67 126.94) scale(.51 .58)"><tspan x="0" y="0">0</tspan></text>
    <path class="cls-19" d="M343.9,246.45l63.37-15.16"/>
    <line class="cls-20" x1="343.9" y1="245.91" x2="397.87" y2="177.58"/>
    <g>
      <path class="cls-10" d="M371.36,218.8c.66.82,1.3,1.81,1.88,2.97,1.68,3.39,1.92,6.6,2.09,8.9.12,1.57.1,3.03.02,4.35"/>
      <path class="cls-2" d="M372.03,219.65l2.45-.65-.02-.09-3.51-1.43c-1.07-.66-2.15-1.31-3.22-1.97.7,1.05,1.4,2.09,2.1,3.14l1.57,3.45.08.02.56-2.48Z"/>
      <path class="cls-2" d="M375.4,233.94l2.31-1.04.04.08-1.83,3.32c-.42,1.19-.84,2.37-1.26,3.56-.12-1.25-.23-2.5-.35-3.76l-.95-3.67.05-.07,1.99,1.57Z"/>
    </g>
    <text class="cls-1" transform="translate(378.12 221.07) scale(.87 1)"><tspan x="0" y="0">θ</tspan></text>
    <text class="cls-1" transform="translate(386.96 227.96) scale(.51 .58)"><tspan x="0" y="0">l</tspan></text>
    <text class="cls-5" transform="translate(78.07 110.48) scale(.87 1)"><tspan x="0" y="0">z</tspan></text>
    <text class="cls-7" transform="translate(147.36 192.09) scale(.87 1)"><tspan x="0" y="0">X</tspan></text>
    <text class="cls-3" transform="translate(228.5 195.6) scale(.87 1)"><tspan class="cls-6" x="0" y="0">b</tspan><tspan class="cls-28" x="10.35" y="0">(</tspan><tspan class="cls-6" x="17.24" y="0">x</tspan><tspan class="cls-28" x="26.42" y="0">)</tspan></text>
    <g>
      <line class="cls-9" x1="102.37" y1="148.52" x2="162.47" y2="107.91"/>
      <path class="cls-25" d="M160.98,108.92l-3.83-1.76.06-.14,6.17-1.36c1.95-.77,3.9-1.55,5.84-2.32-1.44,1.52-2.89,3.04-4.33,4.56l-3.56,5.22-.14.02-.21-4.23Z"/>
    </g>
    <line class="cls-18" x1="96.13" y1="172.82" x2="86.53" y2="166.35"/>
    <path class="cls-15" d="M213.35,147.37c.28.05.6.11.97.18,4.45.83,4.92,1.07,9.84,2.03,2.12.41,1.58.28,6.3,1.17,3.21.61,3.22.62,7.2,1.38,6.11,1.16,6.43,1.19,9,1.72,2.4.5,2.67.59,4.62.97,2.33.45,3.12.55,6.2,1.1,2.05.37,1.71.33,5.65,1.06,2.84.53,5.04.93,7.33,1.34,3.5.64,3.7.66,6.17,1.11,3.94.72,3.87.72,6.21,1.14,1.37.25,3.99.71,7.34,1.27,3.55.59,3.7.57,6.55,1.06,2.91.5,2.88.54,5.78,1.03,3.04.52,3.21.5,7.54,1.22,2.86.47,2.87.5,6.61,1.11.89.15,3.16.52,6.1.98,1.96.31,3.57.56,6.7,1.03,1.68.26,2.85.43,6.64,1.01,5.9.9,5.81.89,7.99,1.22.93.14.86.13,7.27,1.06,3.85.56,5.79.84,6.73.98,3.97.59,4.38.67,6.75,1.01,1.13.16,2.46.35,6.64.91,8.22,1.09,7.61.97,12.24,1.6,2.95.4,4.78.67,8.01,1.06,1.78.22,3.25.38,4.23.49"/>
    <path class="cls-16" d="M132.91,130.07c.9.2,2.35.52,4.14.93,2.61.6,3.19.77,5.31,1.24,1.51.34,1.36.29,4.59.98,1.17.25,1.66.36,5.22,1.14,3.54.77,5.31,1.16,5.45,1.19,5.06,1.08,5.64,1.13,8.28,1.76.63.15,1.56.38,2.91.67.5.11,1.39.29,3.15.66,1.55.32,1.64.34,2.34.48,1.34.28,2,.42,2.67.57,1.04.23,1.33.32,2.42.55.62.13,1.06.22,1.48.31,2.8.57,2.54.53,4.1.84,2.04.41,2.67.51,4.08.84.48.12.51.13.99.24,1.29.3,1.78.37,3.44.71,1.08.22.97.21,2.64.56.95.2,1.63.33,1.97.4,1.75.35,2.65.55,5.49,1.14,3.2.67,4.81,1,6.03,1.24"/>
    <g>
      <line class="cls-2" x1="180.44" y1="228.24" x2="254.53" y2="154.09"/>
      <g>
        <line class="cls-10" x1="186.2" y1="222.48" x2="248.77" y2="159.86"/>
        <path class="cls-2" d="M187.47,221.21l-1-4.1-.14.03-2.5,5.81c-1.13,1.77-2.26,3.53-3.38,5.3,1.77-1.13,3.53-2.26,5.3-3.39l5.8-2.51.04-.13-4.11-1.01Z"/>
        <path class="cls-2" d="M247.5,161.13l-4.1-1,.03-.14,5.8-2.51c1.77-1.13,3.53-2.26,5.3-3.39-1.13,1.77-2.26,3.53-3.38,5.3l-2.5,5.81-.13.04-1.01-4.11Z"/>
      </g>
    </g>
    <text class="cls-5" transform="translate(301.8 242.17) scale(.51 .58)"><tspan x="0" y="0">ξ</tspan></text>
    <text class="cls-5" transform="translate(304.19 206.05) scale(.51 .58)"><tspan x="0" y="0">η</tspan></text>
    <text class="cls-5" transform="translate(268.74 204.44) scale(.51 .58)"><tspan x="0" y="0">ζ</tspan></text>
    <g>
      <line class="cls-9" x1="286.84" y1="223.14" x2="298.23" y2="205.99"/>
      <path class="cls-25" d="M297.24,207.49l-4.21-.17v-.15s5.2-3.6,5.2-3.6c1.51-1.46,3.02-2.91,4.52-4.37-.76,1.95-1.52,3.91-2.27,5.86l-1.31,6.18-.12.07-1.8-3.83Z"/>
    </g>
    <g>
      <line class="cls-9" x1="286.84" y1="223.14" x2="278.86" y2="208.99"/>
      <path class="cls-25" d="M279.74,210.55l-2.06,3.68-.13-.07-.85-6.26c-.61-2-1.23-4.01-1.84-6.01,1.4,1.56,2.8,3.12,4.19,4.69l4.92,3.97v.14s-4.23-.13-4.23-.13Z"/>
    </g>
    <g>
      <line class="cls-9" x1="286.84" y1="223.39" x2="300.36" y2="228.87"/>
      <path class="cls-25" d="M298.7,228.19l-.68-4.16.14-.03,4.57,4.37c1.73,1.19,3.46,2.37,5.18,3.56-2.07-.35-4.13-.7-6.2-1.05l-6.32-.04-.09-.1,3.39-2.53Z"/>
    </g>
  </g>
</svg>